<svg width="82" height="92" viewBox="0 0 82 92" fill="none" xmlns="http://www.w3.org/2000/svg">
<circle cx="41" cy="41" r="41" fill="#E3E7EC"/>
<g clip-path="url(#clip0)">
<path d="M49.2844 92H41C39.9321 92 39.0664 91.1343 39.0664 90.0664V63.1421C39.0664 62.0743 39.9321 61.2085 41 61.2085H49.2844C50.3523 61.2085 51.218 62.0743 51.218 63.1421V90.0664C51.218 91.1343 50.3523 92 49.2844 92Z" fill="#014492"/>
<path d="M49.2847 61.2085H45.1426V92H49.2847C50.3526 92 51.2183 91.1343 51.2183 90.0664V63.1421C51.2183 62.0743 50.3526 61.2085 49.2847 61.2085Z" fill="#033167"/>
<path d="M74 45.4004C74 40.405 69.9504 36.3556 64.9552 36.3556H41C39.9321 36.3556 39.0664 37.2213 39.0664 38.2891V63.1423C39.0664 64.2101 39.9321 65.0759 41 65.0759H72.0664C73.1343 65.0759 74 64.2101 74 63.1423V45.4004Z" fill="#2572CB"/>
<path d="M64.9552 36.3554H58.4668V65.0757H72.0664C73.1343 65.0757 74 64.21 74 63.1421V45.4004C74 40.405 69.9504 36.3554 64.9552 36.3554Z" fill="#3C8BE7"/>
<path d="M61.7109 26H30.6445C29.5767 26 28.7109 26.8657 28.7109 27.9336C28.7109 29.0015 29.5767 29.8672 30.6445 29.8672C35.2957 29.8672 39.0664 33.6377 39.0664 38.289V41.5332C39.0664 43.6691 40.7977 45.4004 42.9335 45.4004C42.9335 48.2599 45.2517 50.5782 48.1113 50.5782C50.971 50.5782 53.2891 48.26 53.2891 45.4004C53.2891 42.5409 55.6072 40.2226 58.4669 40.2226C61.3265 40.2226 63.6447 42.5407 63.6447 45.4004C63.6447 48.2599 65.9628 50.5782 68.8224 50.5782C71.6821 50.5782 74 48.2599 74 45.4004V38.289C74 31.4913 68.4975 26 61.7109 26Z" fill="#E7F9FB"/>
<path d="M41.0003 63.1421H14.0762C13.0083 63.1421 12.1426 62.2764 12.1426 61.2085V38.289C12.1426 37.2212 13.0083 36.3554 14.0762 36.3554H41.0003C42.0682 36.3554 42.9339 37.2212 42.9339 38.289V61.2085C42.9339 62.2764 42.0682 63.1421 41.0003 63.1421Z" fill="#ECBE00"/>
<path d="M41 36.3554H30.6445V63.1421H41C42.0678 63.1421 42.9335 62.2764 42.9335 61.2085V38.289C42.9335 37.2212 42.0678 36.3554 41 36.3554Z" fill="#FF9D21"/>
<path d="M41 40.2226H20.2891C19.2212 40.2226 18.3555 39.3569 18.3555 38.289C18.3555 31.5013 23.8434 26 30.6424 26C37.4207 26 42.9336 31.5129 42.9336 38.289C42.9336 39.357 42.0679 40.2226 41 40.2226Z" fill="#014492"/>
<path d="M41 65.0757H9.93359C8.86573 65.0757 8 64.21 8 63.1421C8 62.0743 8.86573 61.2085 9.93359 61.2085H42.9336V63.1421C42.9336 64.21 42.0679 65.0757 41 65.0757Z" fill="#014492"/>
<path d="M61.7109 26H46.1777C52.9643 26 58.4668 31.4913 58.4668 38.289V40.2226C61.3263 40.2226 63.6445 42.5407 63.6445 45.4004C63.6445 48.2599 65.9627 50.5782 68.8223 50.5782C71.682 50.5782 74 48.2599 74 45.4004V38.289C74 31.4913 68.4975 26 61.7109 26Z" fill="#C8FFFF"/>
<path d="M30.6445 26V40.2226H41C42.0678 40.2226 42.9335 39.3569 42.9335 38.289C42.9335 31.5136 37.4218 26.0012 30.6445 26Z" fill="#033167"/>
<path d="M30.645 56.7914C30.1321 56.7914 29.6403 56.5876 29.2778 56.225L12.709 39.6563C12.156 39.1033 11.9906 38.2716 12.2898 37.5491C12.5891 36.8266 13.2941 36.3554 14.0761 36.3554H41.0004C42.0683 36.3554 42.934 37.2212 42.934 38.289V44.5023C42.934 45.0151 42.7303 45.5069 42.3676 45.8695L32.0122 56.2249C31.6497 56.5876 31.1579 56.7914 30.645 56.7914Z" fill="#FFDD54"/>
<path d="M41 36.3554H30.6445V56.7913C31.1574 56.7913 31.6492 56.5875 32.0117 56.2249L42.3671 45.8695C42.7297 45.5069 42.9335 45.0151 42.9335 44.5023V38.289C42.9335 37.2212 42.0678 36.3554 41 36.3554Z" fill="#ECBE00"/>
</g>
<defs>
<clipPath id="clip0">
<rect width="66" height="66" fill="white" transform="translate(8 26)"/>
</clipPath>
</defs>
</svg>
