<svg width="440" height="268" viewBox="0 0 440 268" fill="none" xmlns="http://www.w3.org/2000/svg">
<rect x="41" y="44" width="369" height="28" rx="14" fill="#E3E7EC" fill-opacity="0.25"/>
<rect x="10" y="72" width="369" height="28" rx="14" fill="#E3E7EC" fill-opacity="0.25"/>
<rect x="40" y="100" width="298" height="28" rx="14" fill="#E3E7EC" fill-opacity="0.25"/>
<rect x="71" y="128" width="369" height="28" rx="14" fill="#E3E7EC" fill-opacity="0.25"/>
<rect x="40" y="156" width="369" height="28" rx="14" fill="#E3E7EC" fill-opacity="0.25"/>
<rect x="70" y="184" width="298" height="28" rx="14" fill="#E3E7EC" fill-opacity="0.25"/>
<rect x="31" y="212" width="369" height="28" rx="14" fill="#E3E7EC" fill-opacity="0.25"/>
<rect x="140" y="69" width="4" height="4" fill="#014492"/>
<rect x="148" y="77" width="4" height="4" fill="#014492"/>
<rect x="132" y="77" width="4" height="4" fill="#014492"/>
<rect x="140" y="85" width="4" height="4" fill="#014492"/>
<rect x="46" y="31" width="2" height="22" fill="#FFF41C"/>
<rect x="58" y="41" width="2" height="22" transform="rotate(90 58 41)" fill="#FFF41C"/>
<rect x="339.5" width="5" height="16" fill="#FFF41C"/>
<rect x="350" y="5.5" width="5" height="16" transform="rotate(90 350 5.5)" fill="#FFF41C"/>
<path d="M285.367 55.8485C286.664 54.8175 286.879 52.9303 285.848 51.6333C284.818 50.3362 282.93 50.1206 281.633 51.1515L285.367 55.8485ZM262.133 66.6515C260.836 67.6825 260.621 69.5697 261.652 70.8667C262.682 72.1638 264.57 72.3794 265.867 71.3485L262.133 66.6515ZM281.633 51.1515L262.133 66.6515L265.867 71.3485L285.367 55.8485L281.633 51.1515Z" fill="#D7DFE9"/>
<path d="M252.842 25.4607C253.373 23.8911 252.53 22.1885 250.961 21.658C249.391 21.1274 247.689 21.9697 247.158 23.5393L252.842 25.4607ZM235.158 59.0393C234.627 60.6089 235.47 62.3115 237.039 62.842C238.609 63.3726 240.311 62.5303 240.842 60.9607L235.158 59.0393ZM247.158 23.5393L235.158 59.0393L240.842 60.9607L252.842 25.4607L247.158 23.5393Z" fill="#D7DFE9"/>
<path d="M189.189 59.9134C190.246 61.1895 192.137 61.3673 193.413 60.3106C194.69 59.2538 194.867 57.3627 193.811 56.0866L189.189 59.9134ZM167.311 24.0866C166.254 22.8105 164.363 22.6327 163.087 23.6894C161.81 24.7462 161.633 26.6373 162.689 27.9134L167.311 24.0866ZM193.811 56.0866L167.311 24.0866L162.689 27.9134L189.189 59.9134L193.811 56.0866Z" fill="#D7DFE9"/>
<path d="M213 27.5C213 25.8431 211.657 24.5 210 24.5C208.343 24.5 207 25.8431 207 27.5H213ZM207 54.5C207 56.1569 208.343 57.5 210 57.5C211.657 57.5 213 56.1569 213 54.5H207ZM207 27.5V54.5H213V27.5H207Z" fill="#D7DFE9"/>
<path d="M288.437 153.188V166.875H270.379C271.858 164.899 272.657 162.497 272.654 160.029C272.652 157.561 271.848 155.16 270.364 153.188H288.437Z" fill="#E3E7EC"/>
<path d="M180.72 162.104C180.31 162.908 179.671 163.573 178.883 164.013C178.096 164.454 177.195 164.651 176.295 164.58C175.396 164.509 174.537 164.172 173.829 163.613C173.121 163.054 172.594 162.298 172.315 161.439C172.037 160.581 172.019 159.659 172.265 158.791C172.51 157.922 173.008 157.146 173.694 156.56C174.381 155.975 175.226 155.606 176.122 155.5C177.018 155.395 177.926 155.558 178.729 155.968C179.263 156.24 179.738 156.614 180.127 157.07C180.516 157.526 180.811 158.054 180.996 158.624C181.181 159.194 181.252 159.794 181.204 160.391C181.157 160.989 180.992 161.571 180.72 162.104Z" fill="#E3E7EC"/>
<path d="M263.036 164.112C262.232 164.521 261.324 164.683 260.428 164.577C259.532 164.471 258.688 164.102 258.002 163.516C257.316 162.93 256.819 162.154 256.574 161.285C256.329 160.417 256.347 159.496 256.625 158.637C256.904 157.779 257.431 157.023 258.139 156.464C258.847 155.905 259.706 155.569 260.605 155.498C261.504 155.427 262.405 155.624 263.192 156.064C263.98 156.505 264.619 157.169 265.029 157.972C265.579 159.051 265.677 160.304 265.304 161.455C264.93 162.606 264.114 163.562 263.036 164.112Z" fill="#E3E7EC"/>
<path d="M180.72 162.104C180.31 162.908 179.671 163.573 178.883 164.013C178.096 164.454 177.195 164.651 176.295 164.58C175.396 164.509 174.537 164.172 173.829 163.613C173.121 163.054 172.594 162.298 172.315 161.439C172.037 160.581 172.019 159.659 172.265 158.791C172.51 157.922 173.008 157.146 173.694 156.56C174.381 155.975 175.226 155.606 176.122 155.5C177.018 155.395 177.926 155.558 178.729 155.968C179.263 156.24 179.738 156.614 180.127 157.07C180.516 157.526 180.811 158.054 180.996 158.624C181.181 159.194 181.252 159.794 181.204 160.391C181.157 160.989 180.992 161.571 180.72 162.104Z" fill="#E3E7EC"/>
<path d="M263.036 164.112C262.232 164.521 261.324 164.683 260.428 164.577C259.532 164.471 258.688 164.102 258.002 163.516C257.316 162.93 256.819 162.154 256.574 161.285C256.329 160.417 256.347 159.496 256.625 158.637C256.904 157.779 257.431 157.023 258.139 156.464C258.847 155.905 259.706 155.569 260.605 155.498C261.504 155.427 262.405 155.624 263.192 156.064C263.98 156.505 264.619 157.169 265.029 157.972C265.579 159.051 265.677 160.304 265.304 161.455C264.93 162.606 264.114 163.562 263.036 164.112Z" fill="#E3E7EC"/>
<path d="M274.008 202.879C269.965 201.07 265.445 200.617 261.123 201.587C256.801 202.558 252.908 204.9 250.027 208.264C247.145 211.629 245.429 215.835 245.133 220.255C244.838 224.675 245.981 229.071 248.39 232.789C250.799 236.506 254.345 239.345 258.5 240.882C262.655 242.418 267.195 242.57 271.443 241.314C275.691 240.058 279.419 237.462 282.071 233.914C284.722 230.366 286.156 226.055 286.156 221.625C286.165 217.659 285.022 213.777 282.865 210.449C280.709 207.121 277.632 204.491 274.008 202.879ZM277.031 226.187H270.187V233.031H261.062V226.187H254.219V219.344H256.5L256.754 217.062H261.062V210.219H270.187V217.062H277.031V226.187Z" fill="#E3E7EC"/>
<path d="M256.754 217.062L256.5 219.344H254.219V217.062H256.754Z" fill="#E3E7EC"/>
<path d="M288.438 150.906H271.425C268.99 148.209 265.589 146.582 261.961 146.378L243.511 110.194C243.103 109.394 242.541 108.682 241.857 108.098C241.173 107.515 240.382 107.072 239.527 106.794C238.672 106.517 237.771 106.411 236.875 106.482C235.979 106.552 235.105 106.799 234.305 107.207C233.504 107.616 232.792 108.178 232.208 108.862C231.625 109.545 231.182 110.337 230.905 111.192C230.627 112.047 230.521 112.948 230.592 113.844C230.663 114.74 230.909 115.613 231.318 116.414L248.906 150.906H188.992L206.589 116.399C207.414 114.783 207.562 112.904 207.002 111.178C206.442 109.451 205.219 108.018 203.602 107.193C201.985 106.368 200.107 106.22 198.38 106.78C196.654 107.34 195.221 108.563 194.396 110.18L175.943 146.364C172.309 146.568 168.903 148.2 166.468 150.906H151.562C150.957 150.906 150.377 151.147 149.949 151.574C149.522 152.002 149.281 152.582 149.281 153.188V166.875C149.281 167.48 149.522 168.06 149.949 168.488C150.377 168.916 150.957 169.156 151.562 169.156H158.709L166.154 221.28C166.633 224.536 168.264 227.512 170.75 229.668C173.237 231.824 176.414 233.017 179.705 233.031H245.881C247.643 236.083 250.088 238.684 253.025 240.632C255.961 242.579 259.309 243.82 262.806 244.256C266.302 244.693 269.852 244.313 273.178 243.147C276.503 241.981 279.512 240.06 281.971 237.536C284.429 235.011 286.269 231.951 287.346 228.596C288.423 225.241 288.708 221.682 288.178 218.199C287.649 214.715 286.32 211.401 284.294 208.518C282.269 205.634 279.604 203.259 276.507 201.579L281.283 169.156H288.438C289.043 169.156 289.623 168.916 290.051 168.488C290.478 168.06 290.719 167.48 290.719 166.875V153.188C290.719 152.582 290.478 152.002 290.051 151.574C289.623 151.147 289.043 150.906 288.438 150.906ZM235.381 114.341C235.119 113.803 235.079 113.185 235.268 112.618C235.458 112.051 235.863 111.581 236.395 111.309C236.928 111.037 237.546 110.986 238.116 111.165C238.686 111.344 239.163 111.74 239.445 112.268L258.533 149.697C258.735 150.092 259.048 150.419 259.432 150.64C259.817 150.86 260.258 150.963 260.7 150.938C262.737 150.814 264.757 151.376 266.436 152.535C268.116 153.694 269.359 155.383 269.966 157.331C270.573 159.279 270.51 161.375 269.786 163.282C269.062 165.19 267.719 166.801 265.973 167.856C264.023 169.035 261.703 169.441 259.468 168.997C257.234 168.552 255.246 167.287 253.897 165.452C253.888 165.442 253.88 165.432 253.874 165.421C252.685 163.786 252.072 161.802 252.131 159.782C252.19 157.761 252.917 155.817 254.199 154.254C254.48 153.911 254.656 153.494 254.704 153.052C254.752 152.611 254.671 152.166 254.47 151.77L235.381 114.341ZM248.359 155.469C247.309 158.419 247.302 161.639 248.339 164.594H189.56C190.603 161.641 190.601 158.42 189.554 155.469H248.359ZM168.298 156.37C169.017 154.749 170.189 153.37 171.674 152.401C173.158 151.431 174.892 150.912 176.665 150.906C176.844 150.906 177.024 150.912 177.204 150.923C177.647 150.949 178.088 150.846 178.473 150.625C178.858 150.405 179.171 150.078 179.374 149.683L198.459 112.253C198.592 111.981 198.778 111.738 199.006 111.538C199.234 111.338 199.499 111.186 199.786 111.089C200.074 110.993 200.377 110.955 200.68 110.978C200.982 111.001 201.277 111.083 201.547 111.221C201.817 111.359 202.056 111.549 202.252 111.78C202.448 112.012 202.595 112.28 202.686 112.569C202.777 112.858 202.809 113.162 202.781 113.464C202.753 113.766 202.665 114.059 202.523 114.326L183.437 151.756C183.236 152.152 183.155 152.597 183.203 153.038C183.251 153.479 183.427 153.897 183.708 154.24C184.738 155.493 185.415 156.999 185.669 158.601C185.923 160.204 185.745 161.845 185.154 163.356C184.563 164.867 183.58 166.193 182.306 167.197C181.032 168.201 179.513 168.848 177.906 169.07C176.299 169.292 174.662 169.082 173.163 168.461C171.664 167.84 170.358 166.83 169.379 165.536C168.401 164.242 167.784 162.711 167.594 161.1C167.404 159.489 167.647 157.856 168.298 156.37ZM153.844 164.594V155.469H163.753C162.708 158.421 162.708 161.642 163.753 164.594H153.844ZM283.875 221.625C283.875 225.235 282.805 228.763 280.799 231.764C278.794 234.765 275.944 237.105 272.609 238.486C269.274 239.867 265.605 240.229 262.065 239.524C258.524 238.82 255.273 237.082 252.72 234.53C250.168 231.977 248.43 228.726 247.726 225.185C247.021 221.645 247.383 217.976 248.764 214.641C250.146 211.306 252.485 208.456 255.486 206.451C258.487 204.445 262.015 203.375 265.625 203.375C270.464 203.38 275.102 205.305 278.524 208.726C281.945 212.148 283.87 216.786 283.875 221.625ZM286.156 164.594H274.157C275.199 161.641 275.196 158.42 274.148 155.469H286.156V164.594Z" fill="#014492"/>
<path d="M173.548 166.128C175.165 166.952 177.043 167.1 178.769 166.539C180.495 165.979 181.928 164.756 182.753 163.139C183.368 161.934 183.612 160.572 183.453 159.228C183.294 157.884 182.74 156.617 181.861 155.587C180.982 154.558 179.818 153.812 178.515 153.445C177.213 153.077 175.83 153.104 174.543 153.522C173.255 153.94 172.121 154.73 171.283 155.793C170.444 156.856 169.94 158.143 169.834 159.493C169.727 160.842 170.023 162.193 170.684 163.374C171.346 164.555 172.342 165.513 173.548 166.128ZM174.625 158.995C174.83 158.593 175.149 158.261 175.543 158.041C175.937 157.82 176.387 157.722 176.837 157.757C177.287 157.793 177.716 157.961 178.07 158.24C178.424 158.52 178.688 158.898 178.827 159.327C178.966 159.756 178.975 160.217 178.853 160.651C178.73 161.085 178.481 161.473 178.138 161.766C177.795 162.059 177.373 162.244 176.925 162.297C176.477 162.35 176.023 162.269 175.621 162.064C175.082 161.788 174.675 161.311 174.488 160.735C174.301 160.16 174.35 159.534 174.624 158.995H174.625Z" fill="#014492"/>
<path d="M254.868 163.155C255.482 164.361 256.441 165.358 257.622 166.019C258.804 166.68 260.154 166.975 261.504 166.869C262.853 166.762 264.14 166.258 265.203 165.419C266.266 164.581 267.056 163.446 267.474 162.159C267.892 160.871 267.918 159.489 267.55 158.186C267.182 156.884 266.437 155.719 265.407 154.841C264.377 153.962 263.11 153.408 261.766 153.25C260.422 153.091 259.061 153.335 257.855 153.949C257.05 154.353 256.333 154.913 255.747 155.596C255.16 156.279 254.714 157.071 254.436 157.928C254.159 158.784 254.053 159.687 254.127 160.585C254.201 161.482 254.453 162.356 254.868 163.155ZM259.928 158.014C260.248 157.85 260.602 157.764 260.962 157.764C261.202 157.764 261.44 157.802 261.668 157.876C262.171 158.039 262.601 158.371 262.886 158.815C263.17 159.26 263.292 159.789 263.231 160.313C263.169 160.837 262.927 161.324 262.547 161.69C262.167 162.056 261.671 162.279 261.145 162.321C260.619 162.362 260.095 162.22 259.662 161.919C259.228 161.617 258.913 161.174 258.77 160.666C258.626 160.158 258.663 159.616 258.875 159.133C259.086 158.649 259.459 158.254 259.929 158.014H259.928Z" fill="#014492"/>
<path d="M258.781 210.219V214.781H254.219C253.614 214.781 253.033 215.022 252.606 215.449C252.178 215.877 251.938 216.457 251.938 217.063V226.188C251.938 226.793 252.178 227.373 252.606 227.801C253.033 228.228 253.614 228.469 254.219 228.469H258.781V233.031C258.781 233.636 259.022 234.217 259.449 234.644C259.877 235.072 260.457 235.313 261.062 235.313H270.188C270.793 235.313 271.373 235.072 271.801 234.644C272.228 234.217 272.469 233.636 272.469 233.031V228.469H277.031C277.636 228.469 278.217 228.228 278.644 227.801C279.072 227.373 279.312 226.793 279.312 226.188V217.063C279.312 216.457 279.072 215.877 278.644 215.449C278.217 215.022 277.636 214.781 277.031 214.781H272.469V210.219C272.469 209.614 272.228 209.033 271.801 208.606C271.373 208.178 270.793 207.938 270.188 207.938H261.062C260.457 207.938 259.877 208.178 259.449 208.606C259.022 209.033 258.781 209.614 258.781 210.219ZM263.344 217.063V212.5H267.906V217.063C267.906 217.668 268.147 218.248 268.574 218.676C269.002 219.103 269.582 219.344 270.188 219.344H274.75V223.906H270.188C269.582 223.906 269.002 224.147 268.574 224.574C268.147 225.002 267.906 225.582 267.906 226.188V230.75H263.344V226.188C263.344 225.582 263.103 225.002 262.676 224.574C262.248 224.147 261.668 223.906 261.062 223.906H256.5V219.344H261.062C261.668 219.344 262.248 219.103 262.676 218.676C263.103 218.248 263.344 217.668 263.344 217.063Z" fill="#014492"/>
<circle cx="199" cy="188" r="4" fill="#F8F9FA"/>
<circle cx="241" cy="188" r="4" fill="#F8F9FA"/>
<path d="M205.808 210.278C205.409 210.66 205.396 211.293 205.778 211.692C206.16 212.091 206.793 212.104 207.192 211.722L205.808 210.278ZM232.379 211.783C232.811 212.127 233.44 212.054 233.783 211.621C234.127 211.189 234.054 210.56 233.621 210.217L232.379 211.783ZM207.192 211.722C209.059 209.933 212.597 207.74 217.042 207.102C221.447 206.47 226.795 207.355 232.379 211.783L233.621 210.217C227.605 205.445 221.703 204.413 216.758 205.123C211.853 205.827 207.941 208.234 205.808 210.278L207.192 211.722Z" fill="white"/>
<rect x="321" y="153.73" width="2" height="2.05334" fill="#014492"/>
<rect x="326" y="158" width="2" height="2" fill="#014492"/>
<rect x="316" y="158" width="2" height="2" fill="#014492"/>
<rect x="321" y="161.259" width="2" height="2.05331" fill="#014492"/>
<ellipse cx="220.5" cy="261" rx="57.5" ry="5" fill="#F8F9FA"/>
</svg>
