<svg width="26" height="26" viewBox="0 0 26 26" fill="none" xmlns="http://www.w3.org/2000/svg">
<path d="M14.6758 16.4531C14.1149 16.4531 13.6602 16.9078 13.6602 17.4688C13.6602 18.0297 14.1149 18.4844 14.6758 18.4844H16.0977C16.6586 18.4844 17.1133 18.0297 17.1133 17.4688C17.1133 16.9078 16.6586 16.4531 16.0977 16.4531H14.6758Z" fill="#292D32"/>
<path d="M24.9844 14.4281C25.5453 14.4281 26 13.9733 26 13.4124V7.51562C26 5.27556 24.1776 3.45312 21.9375 3.45312H4.0625C1.82244 3.45312 0 5.27556 0 7.51562V18.4844C0 20.7244 1.82244 22.5469 4.0625 22.5469H21.9375C24.1776 22.5469 26 20.7244 26 18.4844C26 17.9234 25.5453 17.4688 24.9844 17.4688C24.4234 17.4688 23.9688 17.9234 23.9688 18.4844C23.9688 19.6044 23.0575 20.5156 21.9375 20.5156H4.0625C2.94247 20.5156 2.03125 19.6044 2.03125 18.4844V7.51562C2.03125 6.39559 2.94247 5.48438 4.0625 5.48438H21.9375C23.0575 5.48438 23.9688 6.39559 23.9688 7.51562V13.4124C23.9688 13.9733 24.4234 14.4281 24.9844 14.4281Z" fill="#292D32"/>
<path d="M20.9727 16.4531H19.5508C18.9899 16.4531 18.5352 16.9078 18.5352 17.4688C18.5352 18.0297 18.9899 18.4844 19.5508 18.4844H20.9727C21.5336 18.4844 21.9883 18.0297 21.9883 17.4688C21.9883 16.9078 21.5336 16.4531 20.9727 16.4531Z" fill="#292D32"/>
<path d="M9.80078 18.4844H11.2227C11.7836 18.4844 12.2383 18.0297 12.2383 17.4688C12.2383 16.9078 11.7836 16.4531 11.2227 16.4531H9.80078C9.23985 16.4531 8.78516 16.9078 8.78516 17.4688C8.78516 18.0297 9.23985 18.4844 9.80078 18.4844Z" fill="#292D32"/>
<path d="M10.0547 13.1078V9.04526C10.0547 8.48433 9.59999 8.02963 9.03906 8.02963H4.97656C4.41563 8.02963 3.96094 8.48433 3.96094 9.04526V13.1078C3.96094 13.6687 4.41563 14.1234 4.97656 14.1234H9.03906C9.59999 14.1234 10.0547 13.6686 10.0547 13.1078ZM8.02344 12.0921H5.99219V10.0609H8.02344V12.0921Z" fill="#292D32"/>
<path d="M4.92578 16.4531C4.36485 16.4531 3.91016 16.9078 3.91016 17.4688C3.91016 18.0297 4.36485 18.4844 4.92578 18.4844H6.34766C6.90859 18.4844 7.36328 18.0297 7.36328 17.4688C7.36328 16.9078 6.90859 16.4531 6.34766 16.4531H4.92578Z" fill="#292D32"/>
</svg>
