<svg width="27" height="27" viewBox="0 0 27 27" fill="none" xmlns="http://www.w3.org/2000/svg">
<path d="M23.3899 3.95914H3.61009C1.61947 3.95914 0 5.57861 0 7.56928V19.4308C0 21.4214 1.61947 23.0409 3.61009 23.0409H23.3899C25.3805 23.0409 27 21.4214 27 19.4308V7.56928C27 5.57861 25.3805 3.95914 23.3899 3.95914ZM25.2391 19.4307C25.2391 20.4504 24.4096 21.28 23.39 21.28H3.61009C2.59042 21.28 1.76091 20.4504 1.76091 19.4307V10.2799H25.2391V19.4307ZM25.2391 8.51903H1.76085V7.56923C1.76085 6.54955 2.59042 5.72004 3.61004 5.72004H23.3899C24.4095 5.72004 25.239 6.54961 25.239 7.56923V8.51903H25.2391Z" fill="#292D32"/>
<path d="M20.908 12.6196C20.4026 12.6196 19.9126 12.731 19.4647 12.9452C19.0169 12.731 18.5269 12.6196 18.0216 12.6196C16.1714 12.6196 14.666 14.1249 14.666 15.975C14.666 17.8252 16.1713 19.3306 18.0216 19.3306C18.527 19.3306 19.0169 19.2192 19.4647 19.0049C19.9126 19.2192 20.4026 19.3306 20.908 19.3306C22.7582 19.3306 24.2636 17.8253 24.2636 15.975C24.2636 14.1247 22.7583 12.6196 20.908 12.6196ZM20.908 17.5698C20.5723 17.5698 20.2511 17.4663 19.9788 17.2706L19.4647 16.9008L18.9507 17.2706C18.6785 17.4663 18.3572 17.5698 18.0216 17.5698C17.1423 17.5698 16.4269 16.8544 16.4269 15.9751C16.4269 15.0958 17.1423 14.3805 18.0216 14.3805C18.3572 14.3805 18.6785 14.4839 18.9507 14.6797L19.4647 15.0494L19.9788 14.6797C20.251 14.4839 20.5723 14.3805 20.9079 14.3805C21.7872 14.3805 22.5026 15.0959 22.5026 15.9751C22.5026 16.8543 21.7873 17.5698 20.908 17.5698Z" fill="#292D32"/>
<path d="M9.84185 13.4783H3.61719V15.2391H9.84185V13.4783Z" fill="#292D32"/>
<path d="M11.8346 16.7113H3.61719V18.4721H11.8346V16.7113Z" fill="#292D32"/>
</svg>
