<svg width="18" height="18" viewBox="0 0 18 18" fill="none" xmlns="http://www.w3.org/2000/svg">
<path d="M10.5 8C10.2238 8 10 8.10709 10 8.23923V12.7608C10 12.8928 10.2238 13 10.5 13C10.7762 13 11 12.8928 11 12.7608V8.23923C11 8.10709 10.7762 8 10.5 8Z" fill="#292D32" stroke="#292D32" stroke-width="0.8"/>
<path d="M7.5 8C7.22383 8 7 8.10709 7 8.23923V12.7608C7 12.8928 7.22383 13 7.5 13C7.77617 13 8 12.8928 8 12.7608V8.23923C8 8.10709 7.77617 8 7.5 8Z" fill="#292D32" stroke="#292D32" stroke-width="0.8"/>
<path d="M4.81896 6.57252V13.4965C4.81896 13.9057 4.97293 14.2901 5.2419 14.5658C5.50964 14.8424 5.88224 14.9993 6.27218 15H11.7278C12.1179 14.9993 12.4905 14.8424 12.7581 14.5658C13.0271 14.2901 13.181 13.9057 13.181 13.4965V6.57252C13.7157 6.4342 14.0622 5.93076 13.9907 5.39603C13.919 4.86142 13.4517 4.4615 12.8984 4.46139H11.4221V4.1101C11.4238 3.81469 11.304 3.53103 11.0894 3.32234C10.8748 3.11377 10.5833 2.99762 10.2802 3.00004H7.71978C7.41668 2.99762 7.12518 3.11377 6.9106 3.32234C6.69603 3.53103 6.57619 3.81469 6.57788 4.1101V4.46139H5.10156C4.54829 4.4615 4.08096 4.86142 4.00933 5.39603C3.9378 5.93076 4.28427 6.4342 4.81896 6.57252ZM11.7278 14.4379H6.27218C5.77918 14.4379 5.39565 14.0252 5.39565 13.4965V6.59722H12.6044V13.4965C12.6044 14.0252 12.2208 14.4379 11.7278 14.4379ZM7.15457 4.1101C7.15266 3.96377 7.21168 3.82293 7.31823 3.71963C7.42467 3.61633 7.56952 3.55957 7.71978 3.5621H10.2802C10.4305 3.55957 10.5753 3.61633 10.6818 3.71963C10.7883 3.82282 10.8473 3.96377 10.8454 4.1101V4.46139H7.15457V4.1101ZM5.10156 5.02345H12.8984C13.1851 5.02345 13.4175 5.24992 13.4175 5.5293C13.4175 5.80869 13.1851 6.03516 12.8984 6.03516H5.10156C4.8149 6.03516 4.58253 5.80869 4.58253 5.5293C4.58253 5.24992 4.8149 5.02345 5.10156 5.02345Z" fill="#292D32" stroke="#292D32" stroke-width="0.8"/>
<rect x="4" y="5" width="10" height="1" fill="#292D32"/>
<rect x="7" y="3" width="4" height="2" fill="#292D32"/>
</svg>
