<svg width="20" height="20" viewBox="0 0 20 20" fill="none" xmlns="http://www.w3.org/2000/svg">
<path d="M9.99994 0C4.48589 0 0 4.48589 0 9.99994C0 15.5144 4.48589 19.9999 9.99994 19.9999C15.5144 19.9999 19.9999 15.5143 19.9999 9.99994C20 4.48589 15.5131 0 9.99994 0ZM9.99994 18.6812C5.21306 18.6812 1.31871 14.7868 1.31871 9.99994C1.31871 5.21306 5.21306 1.31871 9.99994 1.31871C14.7868 1.31871 18.6812 5.21306 18.6812 9.99994C18.6812 14.7868 14.7862 18.6812 9.99994 18.6812ZM10.4894 8.76044L10.3026 8.70019V5.81102C10.7263 5.8461 11.0341 5.96071 11.2286 6.15451C11.4732 6.39853 11.5956 6.80139 11.5956 7.36438H13.5518C13.5518 6.35899 13.2426 5.58203 12.6258 5.03472C12.0682 4.54243 11.2936 4.27074 10.3039 4.22117V3.16838H9.60918V4.24372C8.70324 4.29841 7.97172 4.57467 7.41406 5.07242C6.77688 5.64478 6.45856 6.41879 6.45856 7.39402C6.45856 8.19058 6.72219 8.83027 7.2512 9.31287C7.73826 9.75592 8.52448 10.1493 9.60918 10.4926V13.6883C9.2109 13.6284 8.90282 13.4797 8.6832 13.2401C8.40432 12.9259 8.28045 12.4442 8.31074 11.792H6.23501L6.22695 12.0605C6.22695 13.096 6.52054 13.8879 7.10881 14.4353C7.6961 14.9826 8.5296 15.2892 9.60983 15.3542V16.8319H10.3045V15.3457C11.3143 15.3026 12.1314 15.0077 12.7534 14.4648C13.4353 13.8737 13.7772 13.0753 13.7772 12.0683C13.7772 11.2073 13.5274 10.5273 13.0283 10.0296C12.5286 9.52737 11.6819 9.10392 10.4894 8.76044ZM9.60755 8.46173C9.30295 8.33775 9.06187 8.20518 8.88027 8.06595C8.55607 7.81681 8.3944 7.51352 8.3944 7.15489C8.3944 6.72698 8.53613 6.39352 8.82101 6.15396C9.02679 5.97977 9.28716 5.87029 9.60689 5.82551L9.60755 8.46173ZM11.2666 13.3071C11.0181 13.526 10.6954 13.6554 10.3026 13.6959V10.7101C10.7662 10.8602 11.1024 11.0353 11.311 11.2401C11.5865 11.495 11.723 11.8177 11.723 12.2111C11.723 12.6773 11.5705 13.0432 11.2666 13.3071Z" fill="white"/>
</svg>
