<svg width="28" height="28" viewBox="0 0 28 28" fill="none" xmlns="http://www.w3.org/2000/svg">
<path d="M14.0006 27.2432C11.0839 27.2447 8.24828 26.2836 5.93356 24.509C3.61885 22.7344 1.95448 20.2455 1.19865 17.4285C0.442814 14.6114 0.637777 11.6237 1.75329 8.92873C2.8688 6.23379 4.8425 3.98231 7.3682 2.52357C9.89391 1.06483 12.8304 0.480379 15.7222 0.860889C18.6139 1.2414 21.2993 2.5656 23.3617 4.62805C25.424 6.69051 26.7481 9.37593 27.1285 12.2677C27.5089 15.1595 26.9243 18.096 25.4655 20.6216C25.2186 21.0535 24.9465 21.4705 24.6505 21.8703C24.5908 21.9509 24.5014 22.0046 24.4022 22.0194C24.3029 22.0343 24.2018 22.0091 24.1211 21.9493C24.0404 21.8896 23.9868 21.8003 23.9719 21.701C23.9571 21.6018 23.9823 21.5007 24.042 21.42C24.3209 21.0434 24.5774 20.6507 24.8101 20.244C26.3501 17.5705 26.8435 14.4208 26.1948 11.4044C25.5462 8.38809 23.8017 5.71961 21.2989 3.91543C18.7961 2.11126 15.713 1.29967 12.6463 1.63776C9.57958 1.97584 6.74732 3.43955 4.69765 5.7456C2.64798 8.05165 1.52665 11.0361 1.55067 14.1213C1.5747 17.2065 2.74237 20.1731 4.82771 22.4469C6.91304 24.7208 9.76775 26.1402 12.8394 26.4305C15.911 26.7208 18.981 25.8612 21.4554 24.0183C21.5357 23.9581 21.6366 23.9323 21.736 23.9464C21.8353 23.9606 21.925 24.0137 21.9852 24.094C22.0454 24.1743 22.0712 24.2752 22.057 24.3745C22.0428 24.4739 21.9898 24.5635 21.9095 24.6237C19.6277 26.3328 16.8515 27.2523 14.0006 27.2432Z" fill="#292D32" stroke="#292D32" stroke-width="0.5"/>
<path d="M23.0424 23.5238C22.9663 23.5238 22.8921 23.5008 22.8292 23.458C22.7664 23.4152 22.718 23.3544 22.6902 23.2836C22.6624 23.2128 22.6566 23.1353 22.6735 23.0612C22.6905 22.9871 22.7293 22.9198 22.7851 22.8681C22.8831 22.7772 22.9803 22.6789 23.0711 22.5786C23.1041 22.5407 23.1442 22.5098 23.1892 22.4876C23.2342 22.4654 23.2832 22.4524 23.3333 22.4493C23.3834 22.4462 23.4336 22.4531 23.481 22.4696C23.5283 22.4862 23.572 22.5119 23.6093 22.5454C23.6467 22.579 23.677 22.6196 23.6985 22.6649C23.7199 22.7103 23.7322 22.7595 23.7345 22.8096C23.7368 22.8597 23.7291 22.9098 23.7119 22.9569C23.6947 23.0041 23.6682 23.0473 23.6341 23.0841C23.5282 23.2025 23.4139 23.3168 23.2996 23.4228C23.2297 23.4877 23.1378 23.5238 23.0424 23.5238Z" fill="#292D32" stroke="#292D32" stroke-width="0.5"/>
<path d="M14 23.8378C12.0542 23.8378 10.1522 23.2609 8.53434 22.1799C6.91652 21.0989 5.65558 19.5624 4.91097 17.7648C4.16637 15.9671 3.97155 13.9891 4.35115 12.0807C4.73074 10.1724 5.6677 8.41944 7.04355 7.0436C8.4194 5.66775 10.1723 4.73079 12.0807 4.35119C13.989 3.9716 15.9671 4.16642 17.7647 4.91102C19.5624 5.65562 21.0988 6.91656 22.1798 8.53439C23.2608 10.1522 23.8378 12.0543 23.8378 14C23.8348 16.6082 22.7973 19.1088 20.953 20.9531C19.1087 22.7974 16.6082 23.8348 14 23.8378ZM14 4.91892C12.2039 4.91892 10.4482 5.45151 8.95477 6.44935C7.4614 7.4472 6.29745 8.86547 5.61013 10.5248C4.9228 12.1842 4.74297 14.0101 5.09336 15.7716C5.44376 17.5332 6.30865 19.1513 7.57866 20.4213C8.84867 21.6913 10.4668 22.5562 12.2283 22.9066C13.9899 23.257 15.8158 23.0771 17.4751 22.3898C19.1345 21.7025 20.5528 20.5386 21.5506 19.0452C22.5484 17.5518 23.081 15.7961 23.081 14C23.0782 11.5924 22.1206 9.28423 20.4181 7.5818C18.7157 5.87938 16.4075 4.92172 14 4.91892Z" fill="#292D32" stroke="#292D32" stroke-width="0.5"/>
<path d="M13.9995 4.91892C13.8991 4.91892 13.8029 4.87906 13.7319 4.8081C13.661 4.73714 13.6211 4.6409 13.6211 4.54054V1.13514C13.6211 1.03479 13.661 0.938544 13.7319 0.867584C13.8029 0.796624 13.8991 0.75676 13.9995 0.75676C14.0998 0.75676 14.1961 0.796624 14.267 0.867584C14.338 0.938544 14.3779 1.03479 14.3779 1.13514V4.54054C14.3779 4.6409 14.338 4.73714 14.267 4.8081C14.1961 4.87906 14.0998 4.91892 13.9995 4.91892Z" fill="#292D32" stroke="#292D32" stroke-width="0.5"/>
<path d="M9.27161 6.1861C9.20513 6.18617 9.13981 6.16871 9.08221 6.1355C9.02462 6.10229 8.9768 6.05449 8.94356 5.99691L7.24085 3.04783C7.19147 2.96097 7.17845 2.8581 7.20463 2.76168C7.2308 2.66525 7.29406 2.58309 7.38059 2.53313C7.46712 2.48317 7.5699 2.46947 7.6665 2.49501C7.7631 2.52055 7.84567 2.58326 7.89621 2.66945L9.59891 5.61853C9.6321 5.67603 9.64959 5.74124 9.6496 5.80763C9.64962 5.87401 9.63217 5.93924 9.59901 5.99675C9.56584 6.05425 9.51813 6.10203 9.46067 6.13526C9.4032 6.1685 9.338 6.18603 9.27161 6.1861Z" fill="#292D32" stroke="#292D32" stroke-width="0.5"/>
<path d="M5.80771 9.64865C5.74129 9.64865 5.67604 9.63116 5.61852 9.59795L2.66944 7.89524C2.58324 7.84471 2.52053 7.76214 2.49499 7.66554C2.46945 7.56894 2.48316 7.46616 2.53312 7.37963C2.58308 7.2931 2.66524 7.22984 2.76166 7.20366C2.85809 7.17749 2.96096 7.19051 3.04782 7.23989L5.9969 8.9426C6.06903 8.98424 6.1254 9.04853 6.15727 9.12548C6.18914 9.20243 6.19473 9.28775 6.17318 9.3682C6.15162 9.44866 6.10412 9.51975 6.03804 9.57045C5.97196 9.62116 5.891 9.64864 5.80771 9.64865Z" fill="#292D32" stroke="#292D32" stroke-width="0.5"/>
<path d="M4.5416 14.3784H1.13619C1.03584 14.3784 0.939597 14.3385 0.868637 14.2676C0.797677 14.1966 0.757813 14.1004 0.757812 14C0.757813 13.8997 0.797677 13.8034 0.868637 13.7325C0.939597 13.6615 1.03584 13.6216 1.13619 13.6216H4.5416C4.64195 13.6216 4.73819 13.6615 4.80915 13.7325C4.88011 13.8034 4.91997 13.8997 4.91997 14C4.91997 14.1004 4.88011 14.1966 4.80915 14.2676C4.73819 14.3385 4.64195 14.3784 4.5416 14.3784Z" fill="#292D32" stroke="#292D32" stroke-width="0.5"/>
<path d="M2.85883 20.8108C2.77554 20.8108 2.69458 20.7833 2.6285 20.7326C2.56242 20.6819 2.51492 20.6108 2.49336 20.5304C2.4718 20.4499 2.4774 20.3646 2.50927 20.2876C2.54114 20.2107 2.59751 20.1464 2.66964 20.1048L5.61872 18.4021C5.66177 18.3768 5.70939 18.3603 5.75883 18.3536C5.80827 18.3468 5.85856 18.3499 5.9068 18.3627C5.95504 18.3754 6.00029 18.3976 6.03993 18.4279C6.07957 18.4582 6.11282 18.4961 6.13777 18.5393C6.16272 18.5825 6.17888 18.6302 6.18531 18.6797C6.19174 18.7292 6.18832 18.7795 6.17525 18.8276C6.16217 18.8758 6.1397 18.9209 6.10913 18.9603C6.07855 18.9997 6.04048 19.0327 5.9971 19.0574L3.04802 20.7601C2.99056 20.7935 2.92527 20.811 2.85883 20.8108Z" fill="#292D32" stroke="#292D32" stroke-width="0.5"/>
<path d="M7.56744 25.5197C7.50106 25.5197 7.43586 25.5021 7.37839 25.4689C7.32092 25.4357 7.27321 25.3879 7.24005 25.3304C7.20689 25.2729 7.18944 25.2077 7.18945 25.1413C7.18947 25.0749 7.20695 25.0097 7.24015 24.9522L8.94285 22.0031C8.96751 21.9597 9.00051 21.9216 9.03995 21.8911C9.07938 21.8605 9.12448 21.838 9.17264 21.8249C9.22079 21.8119 9.27106 21.8084 9.32055 21.8149C9.37003 21.8213 9.41775 21.8375 9.46097 21.8624C9.50418 21.8874 9.54204 21.9206 9.57235 21.9603C9.60266 21.9999 9.62483 22.0451 9.63758 22.0934C9.65034 22.1416 9.65342 22.1919 9.64666 22.2414C9.6399 22.2908 9.62343 22.3384 9.59819 22.3815L7.8955 25.3306C7.86226 25.3881 7.81443 25.4359 7.75684 25.4691C7.69925 25.5024 7.63392 25.5198 7.56744 25.5197Z" fill="#292D32" stroke="#292D32" stroke-width="0.5"/>
<path d="M13.9995 27.2432C13.8991 27.2432 13.8029 27.2034 13.7319 27.1324C13.661 27.0615 13.6211 26.9652 13.6211 26.8649V23.4595C13.6211 23.3591 13.661 23.2629 13.7319 23.1919C13.8029 23.1209 13.8991 23.0811 13.9995 23.0811C14.0998 23.0811 14.1961 23.1209 14.267 23.1919C14.338 23.2629 14.3779 23.3591 14.3779 23.4595V26.8649C14.3779 26.9652 14.338 27.0615 14.267 27.1324C14.1961 27.2034 14.0998 27.2432 13.9995 27.2432Z" fill="#292D32" stroke="#292D32" stroke-width="0.5"/>
<path d="M20.4318 25.5197C20.3653 25.5198 20.3 25.5023 20.2424 25.4691C20.1848 25.4359 20.137 25.3881 20.1037 25.3305L18.401 22.3815C18.3516 22.2946 18.3386 22.1917 18.3648 22.0953C18.391 21.9989 18.4542 21.9167 18.5407 21.8668C18.6273 21.8168 18.7301 21.8031 18.8267 21.8286C18.9233 21.8542 19.0058 21.9169 19.0564 22.0031L20.7591 24.9522C20.7923 25.0097 20.8097 25.0749 20.8098 25.1413C20.8098 25.2076 20.7923 25.2729 20.7592 25.3304C20.726 25.3879 20.6783 25.4357 20.6208 25.4689C20.5634 25.5021 20.4982 25.5197 20.4318 25.5197Z" fill="#292D32" stroke="#292D32" stroke-width="0.5"/>
<path d="M25.1417 20.8108C25.0753 20.8108 25.01 20.7933 24.9525 20.7601L22.0034 19.0574C21.9172 19.0069 21.8545 18.9243 21.829 18.8277C21.8034 18.7311 21.8171 18.6283 21.8671 18.5418C21.9171 18.4553 21.9992 18.392 22.0956 18.3658C22.1921 18.3396 22.2949 18.3527 22.3818 18.402L25.3309 20.1048C25.403 20.1464 25.4594 20.2107 25.4912 20.2876C25.5231 20.3646 25.5287 20.4499 25.5072 20.5304C25.4856 20.6108 25.4381 20.6819 25.372 20.7326C25.3059 20.7833 25.225 20.8108 25.1417 20.8108Z" fill="#292D32" stroke="#292D32" stroke-width="0.5"/>
<path d="M26.8639 14.3784H23.4585C23.3581 14.3784 23.2619 14.3385 23.1909 14.2676C23.1199 14.1966 23.0801 14.1004 23.0801 14C23.0801 13.8997 23.1199 13.8034 23.1909 13.7325C23.2619 13.6615 23.3581 13.6216 23.4585 13.6216H26.8639C26.9642 13.6216 27.0605 13.6615 27.1314 13.7325C27.2024 13.8034 27.2423 13.8997 27.2423 14C27.2423 14.1004 27.2024 14.1966 27.1314 14.2676C27.0605 14.3385 26.9642 14.3784 26.8639 14.3784Z" fill="#292D32" stroke="#292D32" stroke-width="0.5"/>
<path d="M22.1928 9.64864C22.1095 9.64864 22.0286 9.62115 21.9625 9.57044C21.8964 9.51974 21.8489 9.44865 21.8273 9.36819C21.8058 9.28774 21.8114 9.20242 21.8433 9.12547C21.8751 9.04852 21.9315 8.98424 22.0036 8.94259L24.9527 7.23989C24.9958 7.21465 25.0434 7.19818 25.0928 7.19142C25.1423 7.18466 25.1925 7.18774 25.2408 7.2005C25.289 7.21325 25.3343 7.23542 25.3739 7.26573C25.4136 7.29604 25.4468 7.3339 25.4718 7.37711C25.4967 7.42033 25.5129 7.46805 25.5193 7.51753C25.5257 7.56702 25.5223 7.61729 25.5092 7.66544C25.4962 7.7136 25.4737 7.7587 25.4431 7.79813C25.4125 7.83757 25.3745 7.87057 25.3311 7.89524L22.382 9.59794C22.3245 9.63115 22.2592 9.64864 22.1928 9.64864Z" fill="#292D32" stroke="#292D32" stroke-width="0.5"/>
<path d="M18.7296 6.1861C18.6632 6.18603 18.598 6.1685 18.5405 6.13526C18.483 6.10203 18.4353 6.05425 18.4022 5.99675C18.369 5.93924 18.3515 5.87401 18.3516 5.80763C18.3516 5.74124 18.3691 5.67603 18.4023 5.61853L20.105 2.66945C20.1555 2.58326 20.2381 2.52055 20.3347 2.49501C20.4313 2.46947 20.534 2.48317 20.6206 2.53313C20.7071 2.58309 20.7704 2.66525 20.7965 2.76168C20.8227 2.8581 20.8097 2.96097 20.7603 3.04783L19.0576 5.99691C19.0244 6.05449 18.9765 6.10229 18.919 6.1355C18.8614 6.16871 18.796 6.18617 18.7296 6.1861Z" fill="#292D32" stroke="#292D32" stroke-width="0.5"/>
<path d="M14.0007 14.3784C13.2595 14.3987 12.5405 14.1243 12.0015 13.6153C11.4624 13.1063 11.1472 12.4042 11.125 11.6631C11.1477 10.9222 11.463 10.2204 12.002 9.7114C12.5409 9.20242 13.2596 8.92775 14.0007 8.94752C14.7417 8.92775 15.4604 9.20242 15.9994 9.7114C16.5384 10.2204 16.8537 10.9222 16.8763 11.6631C16.8763 11.7635 16.8365 11.8597 16.7655 11.9307C16.6946 12.0017 16.5983 12.0415 16.498 12.0415C16.3976 12.0415 16.3014 12.0017 16.2304 11.9307C16.1595 11.8597 16.1196 11.7635 16.1196 11.6631C16.097 11.1229 15.8614 10.6136 15.4643 10.2465C15.0673 9.87945 14.541 9.6845 14.0007 9.70427C13.4603 9.6845 12.9341 9.87945 12.537 10.2465C12.14 10.6136 11.9044 11.1229 11.8818 11.6631C11.9044 12.2034 12.14 12.7126 12.5371 13.0796C12.9341 13.4466 13.4603 13.6415 14.0007 13.6216C14.101 13.6216 14.1973 13.6615 14.2682 13.7324C14.3392 13.8034 14.3791 13.8996 14.3791 14C14.3791 14.1004 14.3392 14.1966 14.2682 14.2676C14.1973 14.3385 14.101 14.3784 14.0007 14.3784Z" fill="#292D32" stroke="#292D32" stroke-width="0.5"/>
<path d="M14.0007 19.0525C13.2596 19.0723 12.5409 18.7976 12.002 18.2886C11.463 17.7796 11.1477 17.0778 11.125 16.3369C11.125 16.2365 11.1649 16.1403 11.2358 16.0693C11.3068 15.9984 11.403 15.9585 11.5034 15.9585C11.6037 15.9585 11.7 15.9984 11.7709 16.0693C11.8419 16.1403 11.8818 16.2365 11.8818 16.3369C11.9044 16.8771 12.14 17.3864 12.537 17.7535C12.9341 18.1206 13.4603 18.3155 14.0007 18.2957C14.541 18.3155 15.0673 18.1206 15.4643 17.7535C15.8614 17.3864 16.097 16.8771 16.1196 16.3369C16.097 15.7966 15.8613 15.2874 15.4643 14.9204C15.0672 14.5534 14.541 14.3585 14.0007 14.3784C13.9003 14.3784 13.8041 14.3385 13.7331 14.2676C13.6622 14.1966 13.6223 14.1003 13.6223 14C13.6223 13.8996 13.6622 13.8034 13.7331 13.7324C13.8041 13.6615 13.9003 13.6216 14.0007 13.6216C14.7418 13.6012 15.4608 13.8757 15.9999 14.3847C16.539 14.8937 16.8542 15.5958 16.8763 16.3369C16.8537 17.0778 16.5384 17.7796 15.9994 18.2886C15.4604 18.7976 14.7417 19.0723 14.0007 19.0525Z" fill="#292D32" stroke="#292D32" stroke-width="0.5"/>
<path d="M13.9995 19.849C13.8991 19.849 13.8029 19.8091 13.7319 19.7382C13.661 19.6672 13.6211 19.571 13.6211 19.4706V8.52941C13.6211 8.42906 13.661 8.33282 13.7319 8.26186C13.8029 8.1909 13.8991 8.15103 13.9995 8.15103C14.0998 8.15103 14.1961 8.1909 14.267 8.26186C14.338 8.33282 14.3779 8.42906 14.3779 8.52941V19.4706C14.3779 19.571 14.338 19.6672 14.267 19.7382C14.1961 19.8091 14.0998 19.849 13.9995 19.849Z" fill="#292D32" stroke="#292D32" stroke-width="0.5"/>
</svg>
