<svg width="12" height="12" viewBox="0 0 12 12" fill="none" xmlns="http://www.w3.org/2000/svg">
<g clip-path="url(#clip0)">
<path d="M9.85701 6.00002C9.62031 6.00002 9.42843 6.19189 9.42843 6.42859V10.7142C9.42843 10.9509 9.23656 11.1428 8.99986 11.1428H1.2857C1.049 11.1428 0.857123 10.9509 0.857123 10.7142V2.14292C0.857123 1.90623 1.049 1.71435 1.2857 1.71435H6.42849C6.66519 1.71435 6.85706 1.52248 6.85706 1.28578C6.85706 1.04908 6.66519 0.857227 6.42849 0.857227H1.2857C0.575626 0.857227 0 1.43285 0 2.14292V10.7142C0 11.4243 0.575626 11.9999 1.2857 11.9999H8.99988C9.70995 11.9999 10.2856 11.4243 10.2856 10.7142V6.42857C10.2856 6.19189 10.0937 6.00002 9.85701 6.00002Z" fill="#292D32"/>
<path d="M11.5203 0.480682C11.2125 0.172918 10.7952 5.19252e-05 10.36 0.000102148C9.9245 -0.00115342 9.5067 0.172014 9.19984 0.480958L3.55475 6.12557C3.50792 6.17275 3.47259 6.23011 3.45147 6.29314L2.59435 8.86453C2.51954 9.0891 2.64095 9.33178 2.86552 9.40656C2.90909 9.42107 2.95472 9.42848 3.00062 9.42853C3.04663 9.42846 3.09235 9.42107 3.13605 9.40668L5.70744 8.54956C5.7706 8.52847 5.82798 8.49296 5.87501 8.44585L11.5201 2.80079C12.1608 2.16015 12.1609 1.1214 11.5203 0.480682ZM10.9141 2.1952L5.34273 7.76657L3.67818 8.3224L4.23231 6.65999L9.8058 1.08865C10.1122 0.782846 10.6085 0.783348 10.9143 1.08976C11.0604 1.23613 11.1427 1.43428 11.1434 1.64107C11.1439 1.84897 11.0613 2.04845 10.9141 2.1952Z" fill="#292D32"/>
</g>
<defs>
<clipPath id="clip0">
<rect width="12" height="12" fill="white"/>
</clipPath>
</defs>
</svg>
