<svg width="24" height="24" viewBox="0 0 24 24" fill="none" xmlns="http://www.w3.org/2000/svg">
<path d="M5.77416 12.7713C5.98289 12.9801 6.26187 13.091 6.54579 13.091C6.6863 13.091 6.82805 13.0638 6.96295 13.0078C7.37059 12.839 7.6364 12.4412 7.6364 12V7.63639H22.909C23.5115 7.63639 23.9999 7.14795 23.9999 6.54549C23.9999 5.94302 23.5115 5.45458 22.909 5.45458H7.6364V1.09097C7.6364 0.649812 7.37066 0.251997 6.96295 0.0831249C6.55532 -0.0858195 6.08601 0.00756176 5.77416 0.31956L0.319647 5.77407C-0.106386 6.20011 -0.106386 6.89079 0.319647 7.31683L5.77416 12.7713Z" fill="#798697"/>
<path d="M18.2259 11.2285C17.9139 10.9165 17.4446 10.8232 17.037 10.992C16.6294 11.1609 16.3635 11.5587 16.3635 11.9999V16.3635H1.0909C0.488433 16.3635 0 16.8519 0 17.4544C0 18.0568 0.488433 18.5453 1.0909 18.5453H16.3635V22.9089C16.3635 23.3501 16.6293 23.7479 17.037 23.9167C17.1719 23.9727 17.3137 23.9999 17.4541 23.9999C17.7381 23.9999 18.0171 23.889 18.2258 23.6802L23.6803 18.2257C24.1063 17.7998 24.1063 17.1091 23.6803 16.683L18.2259 11.2285Z" fill="#798697"/>
</svg>
