<svg width="26" height="26" viewBox="0 0 26 26" fill="none" xmlns="http://www.w3.org/2000/svg">
<circle cx="13" cy="13" r="13" fill="#3C5A98"/>
<path d="M15.4997 8.00208L14.203 8C12.7461 8 11.8046 8.96595 11.8046 10.461V11.5957H10.5008C10.3881 11.5957 10.2969 11.687 10.2969 11.7997V13.4438C10.2969 13.5564 10.3882 13.6477 10.5008 13.6477H11.8046V17.7961C11.8046 17.9088 11.8959 18 12.0085 18H13.7097C13.8223 18 13.9136 17.9087 13.9136 17.7961V13.6477H15.438C15.5507 13.6477 15.6419 13.5564 15.6419 13.4438L15.6426 11.7997C15.6426 11.7456 15.621 11.6938 15.5829 11.6555C15.5447 11.6172 15.4927 11.5957 15.4386 11.5957H13.9136V10.6338C13.9136 10.1715 14.0237 9.93679 14.626 9.93679L15.4995 9.93648C15.6121 9.93648 15.7033 9.84514 15.7033 9.73257V8.20599C15.7033 8.09353 15.6122 8.00229 15.4997 8.00208Z" fill="white"/>
</svg>
