<svg width="50" height="50" viewBox="0 0 50 50" fill="none" xmlns="http://www.w3.org/2000/svg">
<rect width="50" height="50" rx="5" fill="#014492"/>
<g clip-path="url(#clip0)">
<path d="M20.7346 9H12.1988C10.4349 9 9 10.4349 9 12.1987V20.7346C9 22.4984 10.4349 23.9333 12.1988 23.9333H20.7346C22.4984 23.9333 23.9333 22.4984 23.9333 20.7346V12.1987C23.9333 10.4349 22.4984 9 20.7346 9ZM22.8667 20.7346C22.8667 21.9102 21.9103 22.8666 20.7346 22.8666H12.1988C11.0231 22.8666 10.0666 21.9102 10.0666 20.7346V12.1987C10.0666 11.0231 11.0231 10.0667 12.1988 10.0667H20.7346C21.9102 10.0667 22.8667 11.0231 22.8667 12.1987V20.7346Z" fill="white"/>
<path d="M20.7346 26.0667H12.1988C10.4349 26.0667 9 27.5016 9 29.2654V37.8013C9 39.5651 10.4349 41 12.1988 41H20.7346C22.4984 41 23.9333 39.5651 23.9333 37.8013V29.2654C23.9333 27.5016 22.4984 26.0667 20.7346 26.0667ZM22.8667 37.8013C22.8667 38.9769 21.9103 39.9333 20.7346 39.9333H12.1988C11.0231 39.9333 10.0666 38.9769 10.0666 37.8013V29.2654C10.0666 28.0897 11.0231 27.1333 12.1988 27.1333H20.7346C21.9102 27.1333 22.8667 28.0897 22.8667 29.2653V37.8013Z" fill="white"/>
<path d="M37.8015 9H29.2656C27.5018 9 26.0669 10.4349 26.0669 12.1987V20.7346C26.0669 22.4984 27.5018 23.9333 29.2656 23.9333H37.8015C39.5653 23.9333 41.0002 22.4984 41.0002 20.7346V12.1987C41.0002 10.4349 39.5653 9 37.8015 9ZM39.9335 20.7346C39.9335 21.9102 38.9771 22.8666 37.8014 22.8666H29.2656C28.09 22.8666 27.1336 21.9102 27.1336 20.7346V12.1987C27.1336 11.0231 28.09 10.0667 29.2657 10.0667H37.8015C38.9771 10.0667 39.9335 11.0231 39.9335 12.1987V20.7346Z" fill="white"/>
<path d="M37.8015 26.0667H29.2656C27.5018 26.0667 26.0669 27.5016 26.0669 29.2654V37.8013C26.0669 39.5651 27.5018 41 29.2656 41H37.8015C39.5653 41 41.0002 39.5651 41.0002 37.8013V29.2654C41.0002 27.5016 39.5653 26.0667 37.8015 26.0667ZM39.9335 37.8013C39.9335 38.9769 38.9771 39.9333 37.8014 39.9333H29.2656C28.09 39.9333 27.1336 38.9769 27.1336 37.8013V29.2654C27.1336 28.0897 28.09 27.1333 29.2657 27.1333H37.8015C38.9771 27.1333 39.9335 28.0897 39.9335 29.2653V37.8013Z" fill="white"/>
</g>
<defs>
<clipPath id="clip0">
<rect width="32" height="32" fill="white" transform="translate(9 9)"/>
</clipPath>
</defs>
</svg>
