<svg width="40" height="40" viewBox="0 0 40 40" fill="none" xmlns="http://www.w3.org/2000/svg">
<rect width="40" height="40" rx="5" fill="#E3E7EC"/>
<g clip-path="url(#clip0)">
<path d="M16.5869 7.20001H9.75822C8.34717 7.20001 7.19922 8.34791 7.19922 9.75896V16.5877C7.19922 17.9988 8.34717 19.1467 9.75822 19.1467H16.5869C17.9979 19.1467 19.1459 17.9988 19.1459 16.5877V9.75896C19.1459 8.34791 17.9979 7.20001 16.5869 7.20001ZM18.2926 16.5877C18.2926 17.5282 17.5274 18.2933 16.5869 18.2933H9.75822C8.81772 18.2933 8.05252 17.5282 8.05252 16.5877V9.75896C8.05252 8.81846 8.81767 8.05336 9.75822 8.05336H16.5869C17.5274 8.05336 18.2926 8.81846 18.2926 9.75896V16.5877Z" fill="#969EAA"/>
<rect x="8.29883" y="8.30002" width="9.8" height="9.8" rx="2.5" stroke="#969EAA"/>
<path d="M7.99961 8.40001L7.59961 10L7.99961 10.4L9.19961 8.80001L10.3996 8.00001L9.19961 7.60001L7.99961 8.40001Z" fill="#969EAA"/>
<path d="M17.9988 8.00001L18.7988 9.60001L18.3988 10L16.7988 8.80001L15.9988 7.60001H17.1988L17.9988 8.00001Z" fill="#969EAA"/>
<path d="M17.5984 17.2L16.3984 18.4L16.7984 18.8L18.3984 18L18.7984 16.8L17.9984 16.4L17.5984 17.2Z" fill="#969EAA"/>
<path d="M8.4 16.8L10 18.4L9.6 18.8L7.6 17.6V16.8L8.4 16.4V16.8Z" fill="#969EAA"/>
<path d="M30.1865 7.20001H23.3578C21.9468 7.20001 20.7988 8.34791 20.7988 9.75896V16.5877C20.7988 17.9988 21.9468 19.1467 23.3578 19.1467H30.1865C31.5975 19.1467 32.7455 17.9988 32.7455 16.5877V9.75896C32.7455 8.34791 31.5975 7.20001 30.1865 7.20001ZM31.8922 16.5877C31.8922 17.5282 31.127 18.2933 30.1865 18.2933H23.3578C22.4173 18.2933 21.6521 17.5282 21.6521 16.5877V9.75896C21.6521 8.81846 22.4173 8.05336 23.3578 8.05336H30.1865C31.127 8.05336 31.8922 8.81846 31.8922 9.75896V16.5877Z" fill="#969EAA"/>
<rect x="21.8984" y="8.30002" width="9.8" height="9.8" rx="2.5" stroke="#969EAA"/>
<path d="M21.5992 8.40001L21.1992 10L21.5992 10.4L22.7992 8.80001L23.9992 8.00001L22.7992 7.60001L21.5992 8.40001Z" fill="#969EAA"/>
<path d="M31.5984 8.00001L32.3984 9.60001L31.9984 10L30.3984 8.80001L29.5984 7.60001H30.7984L31.5984 8.00001Z" fill="#969EAA"/>
<path d="M31.198 17.2L29.998 18.4L30.398 18.8L31.998 18L32.398 16.8L31.598 16.4L31.198 17.2Z" fill="#969EAA"/>
<path d="M21.9996 16.8L23.5996 18.4L23.1996 18.8L21.1996 17.6V16.8L21.9996 16.4V16.8Z" fill="#969EAA"/>
<path d="M30.1865 20.8H23.3578C21.9468 20.8 20.7988 21.9479 20.7988 23.359V30.1877C20.7988 31.5988 21.9468 32.7467 23.3578 32.7467H30.1865C31.5975 32.7467 32.7455 31.5988 32.7455 30.1877V23.359C32.7455 21.9479 31.5975 20.8 30.1865 20.8ZM31.8922 30.1877C31.8922 31.1282 31.127 31.8933 30.1865 31.8933H23.3578C22.4173 31.8933 21.6521 31.1282 21.6521 30.1877V23.359C21.6521 22.4185 22.4173 21.6534 23.3578 21.6534H30.1865C31.127 21.6534 31.8922 22.4185 31.8922 23.359V30.1877Z" fill="#969EAA"/>
<rect x="21.8984" y="21.9" width="9.8" height="9.8" rx="2.5" stroke="#969EAA"/>
<path d="M21.5992 22L21.1992 23.6L21.5992 24L22.7992 22.4L23.9992 21.6L22.7992 21.2L21.5992 22Z" fill="#969EAA"/>
<path d="M31.5984 21.6L32.3984 23.2L31.9984 23.6L30.3984 22.4L29.5984 21.2H30.7984L31.5984 21.6Z" fill="#969EAA"/>
<path d="M31.198 30.8L29.998 32L30.398 32.4L31.998 31.6L32.398 30.4L31.598 30L31.198 30.8Z" fill="#969EAA"/>
<path d="M21.9996 30.4L23.5996 32L23.1996 32.4L21.1996 31.2V30.4L21.9996 30V30.4Z" fill="#969EAA"/>
<path d="M16.5869 20.8H9.75822C8.34717 20.8 7.19922 21.9479 7.19922 23.359V30.1877C7.19922 31.5988 8.34717 32.7467 9.75822 32.7467H16.5869C17.9979 32.7467 19.1459 31.5988 19.1459 30.1877V23.359C19.1459 21.9479 17.9979 20.8 16.5869 20.8ZM18.2926 30.1877C18.2926 31.1282 17.5274 31.8933 16.5869 31.8933H9.75822C8.81772 31.8933 8.05252 31.1282 8.05252 30.1877V23.359C8.05252 22.4185 8.81767 21.6534 9.75822 21.6534H16.5869C17.5274 21.6534 18.2926 22.4185 18.2926 23.359V30.1877Z" fill="#969EAA"/>
<rect x="8.29883" y="21.9" width="9.8" height="9.8" rx="2.5" stroke="#969EAA"/>
<path d="M7.99961 22L7.59961 23.6L7.99961 24L9.19961 22.4L10.3996 21.6L9.19961 21.2L7.99961 22Z" fill="#969EAA"/>
<path d="M17.9988 21.6L18.7988 23.2L18.3988 23.6L16.7988 22.4L15.9988 21.2H17.1988L17.9988 21.6Z" fill="#969EAA"/>
<path d="M17.5984 30.8L16.3984 32L16.7984 32.4L18.3984 31.6L18.7984 30.4L17.9984 30L17.5984 30.8Z" fill="#969EAA"/>
<path d="M8.4 30.4L10 32L9.6 32.4L7.6 31.2V30.4L8.4 30V30.4Z" fill="#969EAA"/>
</g>
<defs>
<clipPath id="clip0">
<rect width="25.6" height="25.6" fill="white" transform="translate(7.19922 7.20001)"/>
</clipPath>
</defs>
</svg>
