<svg width="48" height="42" viewBox="0 0 48 48" fill="none" xmlns="http://www.w3.org/2000/svg">
<path d="M0 0H40C44.4183 0 48 3.58172 48 8V40C48 44.4183 44.4183 48 40 48H0V0Z" fill="#014492"/>
<g clip-path="url(#clip0)">
<path d="M37.6792 23.2258C37.6789 23.2255 37.6786 23.2251 37.6782 23.2247L31.9632 17.5372C31.535 17.1112 30.8425 17.1128 30.4163 17.541C29.9902 17.9691 29.9918 18.6616 30.42 19.0877L34.2571 22.9062H11.0938C10.4897 22.9062 10 23.3959 10 24C10 24.6041 10.4897 25.0937 11.0938 25.0937H34.257L30.42 28.9122C29.9919 29.3384 29.9902 30.0309 30.4164 30.459C30.8426 30.8873 31.5351 30.8888 31.9632 30.4627L37.6783 24.7752C37.6786 24.7749 37.6789 24.7745 37.6793 24.7742C38.1076 24.3467 38.1063 23.6519 37.6792 23.2258Z" fill="white"/>
</g>
<defs>
<clipPath id="clip0">
<rect width="28" height="28" fill="white" transform="translate(10 10)"/>
</clipPath>
</defs>
</svg>
