<svg width="68" height="68" viewBox="0 0 68 68" fill="none" xmlns="http://www.w3.org/2000/svg">
<g filter="url(#filter0_d)">
<circle cx="34" cy="34" r="24" fill="white"/>
</g>
<path d="M43.2403 30.9826H41.84C42.0044 31.9055 41.6096 32.8784 40.7653 33.4008C40.3922 33.6314 39.9641 33.7535 39.5267 33.7535C38.7039 33.7535 37.9544 33.3361 37.5221 32.637C37.2163 32.1425 37.1172 31.5503 37.2196 30.9825H30.7806C30.8824 31.5503 30.7834 32.1424 30.4777 32.6373C30.0457 33.3361 29.2962 33.7534 28.4734 33.7534C28.0357 33.7534 27.6077 33.6314 27.2344 33.4008C26.3902 32.8784 25.9953 31.9054 26.1599 30.9825H24.7597C23.7877 30.9825 23 31.7702 23 32.7422C23 33.7137 23.7877 34.5013 24.7597 34.5013H24.9538L26.2442 42.3496C26.3795 43.1707 27.0889 43.7736 27.9215 43.7736H40.0785C40.911 43.7736 41.6204 43.1707 41.7556 42.3496L43.0456 34.5014H43.2403C44.2122 34.5014 45 33.7137 45 32.7422C45 31.7702 44.2121 30.9826 43.2403 30.9826ZM30.5034 41.7376C30.4502 41.7454 30.3976 41.7495 30.3455 41.7495C29.8319 41.7495 29.3818 41.3735 29.3026 40.8501L28.5718 35.9792C28.4853 35.4024 28.8824 34.865 29.4592 34.7784C30.0368 34.6944 30.5731 35.089 30.66 35.6655L31.391 40.5368C31.4775 41.1135 31.0802 41.651 30.5034 41.7376ZM35.0559 40.6933C35.0559 41.2767 34.5835 41.7494 34.0003 41.7494C33.417 41.7494 32.9448 41.2766 32.9448 40.6933V35.8221C32.9448 35.2393 33.417 34.7665 34.0003 34.7665C34.5835 34.7665 35.0559 35.2393 35.0559 35.8221V40.6933ZM39.4285 35.9791L38.6972 40.85C38.6186 41.3735 38.1685 41.7494 37.6549 41.7494C37.6026 41.7494 37.5501 41.7454 37.4969 41.7375C36.9201 41.651 36.5229 41.1134 36.6094 40.5368L37.3403 35.6654C37.4271 35.0886 37.9613 34.6914 38.541 34.7783C39.1176 34.8648 39.515 35.4023 39.4285 35.9791Z" fill="#014492"/>
<path d="M27.6051 32.8022C27.8756 32.9699 28.1764 33.0497 28.4736 33.0497C29.0267 33.0497 29.5675 32.7719 29.8792 32.267C30.1667 31.802 30.1914 31.252 30.0019 30.7812L33.1368 25.7146C33.4201 25.2565 33.2784 24.6565 32.8203 24.3726C32.6605 24.2739 32.4832 24.2264 32.3083 24.2264C31.9818 24.2264 31.6629 24.3905 31.478 24.6891L28.3441 29.7557C27.8385 29.7963 27.3572 30.0631 27.0697 30.528C26.5894 31.304 26.8298 32.3222 27.6051 32.8022Z" fill="#014492"/>
<path d="M37.9985 30.7812C37.809 31.252 37.8332 31.802 38.1208 32.267C38.4331 32.7719 38.9733 33.0497 39.5269 33.0497C39.824 33.0497 40.1244 32.9699 40.3954 32.8022C41.1707 32.3222 41.4105 31.3039 40.9304 30.528C40.6437 30.0631 40.162 29.7963 39.6568 29.7557L36.5217 24.6891C36.3373 24.3904 36.0183 24.2264 35.6917 24.2264C35.5169 24.2264 35.3396 24.2739 35.1795 24.3726C34.7216 24.6565 34.581 25.2565 34.8632 25.7146L37.9985 30.7812Z" fill="#014492"/>
<defs>
<filter id="filter0_d" x="0" y="0" width="68" height="68" filterUnits="userSpaceOnUse" color-interpolation-filters="sRGB">
<feFlood flood-opacity="0" result="BackgroundImageFix"/>
<feColorMatrix in="SourceAlpha" type="matrix" values="0 0 0 0 0 0 0 0 0 0 0 0 0 0 0 0 0 0 127 0"/>
<feOffset/>
<feGaussianBlur stdDeviation="5"/>
<feColorMatrix type="matrix" values="0 0 0 0 0.81 0 0 0 0 0.851586 0 0 0 0 0.9 0 0 0 1 0"/>
<feBlend mode="normal" in2="BackgroundImageFix" result="effect1_dropShadow"/>
<feBlend mode="normal" in="SourceGraphic" in2="effect1_dropShadow" result="shape"/>
</filter>
</defs>
</svg>
