<svg width="68" height="68" viewBox="0 0 68 68" fill="none" xmlns="http://www.w3.org/2000/svg">
<g filter="url(#filter0_d)">
<circle cx="34" cy="34" r="24" fill="white"/>
</g>
<g clip-path="url(#clip0)">
<path d="M34 22C29.7647 22 26.3319 25.4328 26.3319 29.6681C26.3319 31.4944 26.9741 33.169 28.0412 34.4853C28.3851 34.909 28.9606 35.5761 29.2605 36.0322C30.9876 38.656 33.2033 42.4666 33.849 45.5938C33.9598 46.1278 34.0933 46.1371 34.2371 45.6111C34.6976 43.9249 35.8921 40.2407 38.3588 36.3856C38.653 35.9258 39.2493 35.2824 39.6196 34.8818C40.1558 34.3011 40.6021 33.6362 40.9412 32.9113C41.4036 31.9225 41.668 30.8278 41.668 29.669C41.668 25.4332 38.2351 22 34 22ZM34 33.8111C31.6361 33.8111 29.7198 31.8948 29.7198 29.5309C29.7198 27.1675 31.6361 25.2513 34 25.2513C36.3639 25.2513 38.2801 27.1675 38.2801 29.5309C38.2801 31.8949 36.3639 33.8111 34 33.8111Z" fill="#014492"/>
<path d="M34 31.1597C34.9831 31.1597 35.78 30.3627 35.78 29.3796C35.78 28.3966 34.9831 27.5996 34 27.5996C33.0169 27.5996 32.22 28.3966 32.22 29.3796C32.22 30.3627 33.0169 31.1597 34 31.1597Z" fill="#014492"/>
</g>
<defs>
<filter id="filter0_d" x="0" y="0" width="68" height="68" filterUnits="userSpaceOnUse" color-interpolation-filters="sRGB">
<feFlood flood-opacity="0" result="BackgroundImageFix"/>
<feColorMatrix in="SourceAlpha" type="matrix" values="0 0 0 0 0 0 0 0 0 0 0 0 0 0 0 0 0 0 127 0"/>
<feOffset/>
<feGaussianBlur stdDeviation="5"/>
<feColorMatrix type="matrix" values="0 0 0 0 0.81 0 0 0 0 0.851586 0 0 0 0 0.9 0 0 0 1 0"/>
<feBlend mode="normal" in2="BackgroundImageFix" result="effect1_dropShadow"/>
<feBlend mode="normal" in="SourceGraphic" in2="effect1_dropShadow" result="shape"/>
</filter>
<clipPath id="clip0">
<rect width="24" height="24" fill="white" transform="translate(22 22)"/>
</clipPath>
</defs>
</svg>
