<svg width="22" height="22" viewBox="0 0 22 22" xmlns="http://www.w3.org/2000/svg">
<path d="M10.9987 0C6.32325 0 2.51953 3.80372 2.51953 8.47915C2.51953 11.1088 3.88014 14.1628 6.56358 17.5566C8.52712 20.0399 10.4624 21.7562 10.5438 21.828C10.8037 22.0573 11.1936 22.0573 11.4536 21.828C11.535 21.7562 13.4702 20.0399 15.4338 17.5566C18.1172 14.1628 19.4778 11.1088 19.4778 8.47915C19.4778 3.80372 15.6741 0 10.9987 0V0ZM10.9987 20.3745C9.3648 18.8174 3.89453 13.2471 3.89453 8.47915C3.89453 4.56191 7.08144 1.375 10.9987 1.375C14.9159 1.375 18.1028 4.56191 18.1028 8.47915C18.1028 13.2471 12.6325 18.8175 10.9987 20.3745Z" />
<path d="M16.258 8.07177L11.4455 3.94677C11.188 3.72608 10.8081 3.72608 10.5506 3.94677L5.73813 8.07177C5.44985 8.31884 5.41647 8.75291 5.66358 9.04118C5.91069 9.32946 6.34472 9.36285 6.633 9.11573L7.21677 8.61532V12.0312C7.21677 12.4109 7.5246 12.7188 7.90427 12.7188H14.0918C14.4714 12.7188 14.7793 12.4109 14.7793 12.0312V8.61532L15.3631 9.11573C15.6527 9.36396 16.0865 9.32817 16.3325 9.04118C16.5796 8.75291 16.5462 8.31888 16.258 8.07177ZM13.4043 11.3438H8.59177V7.43673L10.998 5.37423L13.4043 7.43673V11.3438Z" />
</svg>
