<svg width="50" height="50" viewBox="0 0 50 50" fill="none" xmlns="http://www.w3.org/2000/svg">
<rect width="50" height="50" rx="5" fill="#E3E7EC"/>
<path d="M37.7515 13.3106H16.509C15.3358 13.3106 14.3848 14.2617 14.3848 15.4349C14.3848 16.6081 15.3358 17.5591 16.509 17.5591H37.7515C38.9247 17.5591 39.8758 16.6081 39.8758 15.4349C39.8758 14.2617 38.9247 13.3106 37.7515 13.3106Z" fill="#969EAA"/>
<path d="M12.2604 15.4349C12.258 14.8724 12.0326 14.3339 11.6338 13.9373C10.8052 13.1137 9.46708 13.1137 8.63855 13.9373C8.23959 14.3339 8.01422 14.8724 8.0119 15.4349C7.99603 15.5725 7.99603 15.7115 8.0119 15.8491C8.03593 15.9875 8.0751 16.1229 8.12873 16.2527C8.18576 16.3785 8.25327 16.4993 8.33054 16.6138C8.40681 16.7329 8.49583 16.8433 8.59607 16.9431C8.69272 17.0394 8.79953 17.1249 8.91471 17.198C9.02656 17.2795 9.14784 17.3472 9.27583 17.3998C9.41663 17.4728 9.56672 17.5265 9.72192 17.5591C9.85953 17.5745 9.99854 17.5745 10.1362 17.5591C10.6971 17.5596 11.2355 17.3382 11.6338 16.9431C11.734 16.8433 11.823 16.7329 11.8993 16.6138C11.9766 16.4993 12.0441 16.3785 12.1011 16.2527C12.1689 16.1245 12.2223 15.9891 12.2604 15.8491C12.2763 15.7115 12.2763 15.5725 12.2604 15.4349Z" fill="#969EAA"/>
<path d="M12.2602 24.994C12.276 24.8564 12.276 24.7174 12.2602 24.5798C12.2235 24.4427 12.17 24.3108 12.1009 24.1868C12.0462 24.0565 11.9786 23.932 11.8991 23.8151C11.8255 23.6973 11.7361 23.5901 11.6336 23.4964C10.805 22.6728 9.4669 22.6728 8.63837 23.4964C8.23941 23.893 8.01404 24.4316 8.01172 24.994C8.01583 25.274 8.0698 25.5509 8.17104 25.8119C8.22428 25.9375 8.28827 26.0584 8.36222 26.173C8.44301 26.2884 8.53555 26.3952 8.63837 26.4916C8.73224 26.594 8.83938 26.6833 8.95701 26.7572C9.06887 26.8387 9.19008 26.9065 9.31813 26.959C9.44765 27.0135 9.58314 27.0527 9.72174 27.0758C9.85763 27.1063 9.9967 27.1205 10.136 27.1183C10.2736 27.1342 10.4126 27.1342 10.5502 27.1183C10.6854 27.0951 10.8173 27.0559 10.9432 27.0015C11.0747 26.9493 11.1995 26.8815 11.3149 26.7996C11.4326 26.7258 11.5397 26.6365 11.6336 26.5341C11.7359 26.4403 11.8253 26.3331 11.8991 26.2155C11.9808 26.1037 12.0485 25.9825 12.1009 25.8544C12.1735 25.7134 12.227 25.5633 12.2602 25.4083C12.2766 25.2706 12.2766 25.1316 12.2602 24.994Z" fill="#969EAA"/>
<path d="M12.2604 34.5532C12.2761 34.4156 12.2761 34.2766 12.2604 34.1389C12.2236 33.9985 12.1701 33.863 12.101 33.7353C12.044 33.6095 11.9765 33.4887 11.8992 33.3742C11.8254 33.2566 11.7361 33.1494 11.6337 33.0556C10.8052 32.232 9.46703 32.232 8.6385 33.0556C8.53614 33.1494 8.44679 33.2566 8.37297 33.3742C8.2957 33.4887 8.22819 33.6095 8.17117 33.7353C8.11607 33.8647 8.07684 34.0002 8.05433 34.1389C8.0244 34.275 8.01019 34.4139 8.01185 34.5532C8.01424 35.1156 8.23961 35.6542 8.6385 36.0508C8.73237 36.1531 8.83951 36.2425 8.95714 36.3163C9.069 36.3978 9.19021 36.4656 9.31826 36.5181C9.44778 36.5726 9.58327 36.6118 9.72187 36.6349C9.85776 36.6654 9.99683 36.6797 10.1361 36.6774C10.2737 36.6933 10.4127 36.6933 10.5503 36.6774C10.6855 36.6543 10.8175 36.615 10.9433 36.5606C11.0748 36.5084 11.1996 36.4406 11.3151 36.3588C11.4327 36.285 11.5398 36.1956 11.6337 36.0933C11.7361 35.9994 11.8254 35.8923 11.8992 35.7746C11.9809 35.6629 12.0487 35.5416 12.101 35.4135C12.1735 35.2724 12.2271 35.1225 12.2604 34.9674C12.2767 34.8298 12.2767 34.6908 12.2604 34.5532Z" fill="#969EAA"/>
<path d="M39.8758 22.8698H16.509C15.3358 22.8698 14.3848 23.8208 14.3848 24.994C14.3848 26.1672 15.3358 27.1183 16.509 27.1183H39.8758C41.049 27.1183 42 26.1672 42 24.994C42 23.8208 41.049 22.8698 39.8758 22.8698Z" fill="#969EAA"/>
<path d="M30.3167 32.4289H16.509C15.3358 32.4289 14.3848 33.38 14.3848 34.5532C14.3848 35.7264 15.3358 36.6774 16.509 36.6774H30.3167C31.4898 36.6774 32.4409 35.7264 32.4409 34.5532C32.4409 33.38 31.4898 32.4289 30.3167 32.4289Z" fill="#969EAA"/>
</svg>
