<svg width="40" height="40" viewBox="0 0 40 40" fill="none" xmlns="http://www.w3.org/2000/svg">
<rect width="40" height="40" rx="5" fill="#014492"/>
<g clip-path="url(#clip0)">
<path d="M30.2012 10.6485H13.2072C12.2687 10.6485 11.5078 11.4094 11.5078 12.3479C11.5078 13.2864 12.2687 14.0473 13.2072 14.0473H30.2012C31.1398 14.0473 31.9006 13.2864 31.9006 12.3479C31.9006 11.4094 31.1398 10.6485 30.2012 10.6485Z" fill="white"/>
<path d="M9.80872 12.3479C9.8068 11.8979 9.62651 11.4671 9.30739 11.1498C8.64457 10.4909 7.57405 10.4909 6.91123 11.1498C6.59206 11.4671 6.41177 11.8979 6.40991 12.3479C6.39722 12.458 6.39722 12.5692 6.40991 12.6793C6.42913 12.79 6.46047 12.8983 6.50338 13.0022C6.549 13.1028 6.603 13.1995 6.66482 13.2911C6.72584 13.3864 6.79706 13.4747 6.87725 13.5545C6.95457 13.6315 7.04002 13.6999 7.13216 13.7584C7.22164 13.8236 7.31867 13.8778 7.42105 13.9199C7.53369 13.9783 7.65377 14.0212 7.77793 14.0473C7.88802 14.0596 7.99922 14.0596 8.10931 14.0473C8.55806 14.0477 8.98875 13.8705 9.30739 13.5545C9.38758 13.4747 9.4588 13.3864 9.51982 13.2911C9.58163 13.1995 9.63564 13.1028 9.68126 13.0022C9.73548 12.8996 9.77823 12.7913 9.80872 12.6793C9.82141 12.5692 9.82141 12.458 9.80872 12.3479Z" fill="white"/>
<path d="M9.80896 19.9952C9.8216 19.8851 9.8216 19.7739 9.80896 19.6638C9.77959 19.5542 9.73679 19.4486 9.68151 19.3495C9.63775 19.2452 9.58363 19.1456 9.52006 19.0521C9.46117 18.9578 9.38969 18.8721 9.30764 18.7971C8.64482 18.1383 7.5743 18.1383 6.91148 18.7971C6.59231 19.1144 6.41201 19.5453 6.41016 19.9952C6.41345 20.2192 6.45662 20.4407 6.53761 20.6495C6.5802 20.75 6.6314 20.8467 6.69056 20.9384C6.75519 21.0307 6.82922 21.1162 6.91148 21.1933C6.98657 21.2752 7.07229 21.3467 7.16639 21.4057C7.25587 21.4709 7.35285 21.5252 7.45529 21.5672C7.5589 21.6108 7.66729 21.6422 7.77818 21.6606C7.88688 21.685 7.99814 21.6964 8.10956 21.6946C8.21965 21.7073 8.33085 21.7073 8.44094 21.6946C8.54907 21.6761 8.65464 21.6447 8.75533 21.6012C8.86054 21.5594 8.96038 21.5052 9.05273 21.4397C9.14683 21.3807 9.23255 21.3092 9.30764 21.2273C9.38953 21.1522 9.46101 21.0665 9.52006 20.9724C9.58538 20.883 9.63961 20.786 9.68151 20.6835C9.73955 20.5707 9.78241 20.4507 9.80896 20.3266C9.82203 20.2165 9.82203 20.1053 9.80896 19.9952Z" fill="white"/>
<path d="M9.80907 27.6425C9.82165 27.5324 9.82165 27.4212 9.80907 27.3112C9.7797 27.1988 9.73689 27.0904 9.68161 26.9883C9.63599 26.8876 9.58198 26.791 9.52017 26.6994C9.46111 26.6053 9.38963 26.5195 9.30774 26.4445C8.64492 25.7856 7.5744 25.7856 6.91158 26.4445C6.82969 26.5195 6.75821 26.6053 6.69916 26.6994C6.63734 26.791 6.58333 26.8876 6.53772 26.9883C6.49364 27.0917 6.46225 27.2002 6.44425 27.3112C6.4203 27.42 6.40893 27.5311 6.41026 27.6425C6.41217 28.0925 6.59247 28.5234 6.91158 28.8406C6.98668 28.9225 7.07239 28.994 7.16649 29.053C7.25598 29.1183 7.35295 29.1725 7.45539 29.2145C7.559 29.2581 7.66739 29.2895 7.77828 29.3079C7.88699 29.3323 7.99825 29.3437 8.10966 29.3419C8.21975 29.3546 8.33096 29.3546 8.44105 29.3419C8.54917 29.3234 8.65475 29.292 8.75544 29.2485C8.86064 29.2067 8.96048 29.1525 9.05283 29.087C9.14694 29.028 9.23265 28.9565 9.30774 28.8746C9.38963 28.7995 9.46111 28.7138 9.52017 28.6197C9.58554 28.5303 9.63976 28.4333 9.68161 28.3308C9.7396 28.2179 9.78246 28.098 9.80907 27.9739C9.82213 27.8638 9.82213 27.7526 9.80907 27.6425Z" fill="white"/>
<path d="M31.9006 18.2958H13.2072C12.2687 18.2958 11.5078 19.0567 11.5078 19.9952C11.5078 20.9338 12.2687 21.6946 13.2072 21.6946H31.9006C32.8392 21.6946 33.6 20.9338 33.6 19.9952C33.6 19.0567 32.8392 18.2958 31.9006 18.2958Z" fill="white"/>
<path d="M24.2533 25.9431H13.2072C12.2687 25.9431 11.5078 26.704 11.5078 27.6425C11.5078 28.5811 12.2687 29.3419 13.2072 29.3419H24.2533C25.1919 29.3419 25.9527 28.5811 25.9527 27.6425C25.9527 26.704 25.1919 25.9431 24.2533 25.9431Z" fill="white"/>
</g>
<defs>
<clipPath id="clip0">
<rect width="27.2" height="27.2" fill="white" transform="translate(6.40039 6.39999)"/>
</clipPath>
</defs>
</svg>
