<svg width="367" height="202" viewBox="0 0 367 202" fill="none" xmlns="http://www.w3.org/2000/svg">
<path fill-rule="evenodd" clip-rule="evenodd" d="M185 3.94728C164.804 3.94728 148.43 20.3277 148.43 40.5461C148.43 60.7644 164.804 77.1563 185 77.1563C205.186 77.1563 221.56 60.7644 221.56 40.5461C221.56 20.3277 205.186 3.94728 185 3.94728Z" fill="#014492"/>
<path fill-rule="evenodd" clip-rule="evenodd" d="M185 96.6586H113.68L99.541 124.43H108.415H170.86L185 96.6586Z" fill="#FFF41C"/>
<path fill-rule="evenodd" clip-rule="evenodd" d="M256.319 96.6586H185L199.139 124.43H261.573H270.459L256.319 96.6586Z" fill="#FFF41C"/>
<path fill-rule="evenodd" clip-rule="evenodd" d="M170.861 124.43H108.416V198.053H185V96.6586L170.861 124.43Z" fill="#014492"/>
<path fill-rule="evenodd" clip-rule="evenodd" d="M261.573 124.43H199.139L185 96.6586V198.053H261.573V124.43Z" fill="#014492"/>
<path d="M273.976 122.638L259.837 94.8677C259.164 93.5446 257.805 92.7113 256.32 92.7113H185H113.68C112.195 92.7113 110.836 93.5446 110.162 94.8677L96.0233 122.638C95.4005 123.862 95.4581 125.322 96.1757 126.493C96.8933 127.663 98.1679 128.377 99.5408 128.377H104.468V198.053C104.468 200.232 106.235 202 108.415 202H261.572C263.752 202 265.519 200.232 265.519 198.053V128.377H270.458C271.831 128.377 273.106 127.663 273.823 126.493C274.541 125.322 274.599 123.862 273.976 122.638ZM253.9 100.606L264.02 120.482H201.559L191.439 100.606H253.9ZM116.1 100.606H178.561L168.441 120.482H105.98L116.1 100.606ZM257.626 194.105H188.947V172.228C188.947 170.049 187.18 168.281 185 168.281C182.82 168.281 181.053 170.049 181.053 172.228V194.105H112.363V128.377H170.861C172.346 128.377 173.705 127.544 174.379 126.221L181.053 113.112V136.782C181.053 138.962 182.82 140.73 185 140.73C187.18 140.73 188.947 138.962 188.947 136.782V113.112L195.621 126.221C196.295 127.544 197.654 128.377 199.139 128.377H257.626V194.105Z" fill="#E3E7EC"/>
<path d="M151.244 172.488H128.768C126.588 172.488 124.82 174.256 124.82 176.435C124.82 178.615 126.588 180.383 128.768 180.383H151.244C153.424 180.383 155.191 178.615 155.191 176.435C155.191 174.256 153.424 172.488 151.244 172.488Z" fill="white"/>
<path d="M185 81.1039C207.336 81.1039 225.507 62.9098 225.507 40.5464C225.507 18.1891 207.336 0 185 0C162.659 0 144.482 18.1891 144.482 40.5464C144.482 62.9098 162.658 81.1039 185 81.1039ZM185 7.89456C202.983 7.89456 217.613 22.5421 217.613 40.5464C217.613 58.5571 202.983 73.2094 185 73.2094C167.012 73.2094 152.377 58.5571 152.377 40.5464C152.377 22.5421 167.012 7.89456 185 7.89456Z" fill="#E3E7EC"/>
<path d="M167.303 46.4666L177.81 55.3724C178.525 55.9791 179.431 56.3087 180.362 56.3087C180.474 56.3087 180.586 56.304 180.699 56.2945C181.747 56.2045 182.715 55.7008 183.389 54.8944L203.161 31.2636C204.56 29.592 204.339 27.1024 202.667 25.7031C200.995 24.305 198.506 24.5256 197.107 26.1977L179.884 46.7816L172.408 40.4442C170.745 39.0346 168.254 39.2391 166.845 40.9029C165.435 42.5663 165.64 45.0566 167.303 46.4666Z" fill="white"/>
<path d="M107.455 44.4937H124.533C126.713 44.4937 128.481 42.7261 128.481 40.5464C128.481 38.3668 126.713 36.5992 124.533 36.5992H107.455C105.275 36.5992 103.508 38.3668 103.508 40.5464C103.508 42.7261 105.275 44.4937 107.455 44.4937Z" fill="#E3E7EC"/>
<path d="M105.612 17.0274L122.691 26.0347C123.278 26.3445 123.908 26.4914 124.529 26.4914C125.946 26.4914 127.316 25.726 128.024 24.3847C129.041 22.4565 128.302 20.0688 126.374 19.0519L109.295 10.0446C107.368 9.02782 104.979 9.76596 103.962 11.6946C102.946 13.6228 103.684 16.0106 105.612 17.0274Z" fill="#E3E7EC"/>
<path d="M103.961 69.3959C104.668 70.738 106.039 71.5046 107.457 71.5046C108.077 71.5046 108.707 71.3581 109.293 71.049L126.372 62.0532C128.3 61.0372 129.04 58.6498 128.024 56.7212C127.008 54.7922 124.621 54.0525 122.692 55.0681L105.614 64.0639C103.685 65.08 102.946 67.4673 103.961 69.3959Z" fill="#E3E7EC"/>
<path d="M245.455 44.4937H262.533C264.713 44.4937 266.481 42.7261 266.481 40.5464C266.481 38.3668 264.713 36.5992 262.533 36.5992H245.455C243.275 36.5992 241.508 38.3668 241.508 40.5464C241.508 42.7261 243.275 44.4937 245.455 44.4937Z" fill="#E3E7EC"/>
<path d="M245.459 26.4914C246.08 26.4914 246.71 26.3445 247.297 26.0347L264.375 17.0274C266.304 16.0106 267.042 13.6228 266.025 11.6946C265.008 9.76635 262.621 9.02703 260.693 10.0446L243.614 19.0519C241.686 20.0687 240.948 22.4565 241.964 24.3847C242.672 25.726 244.041 26.4914 245.459 26.4914Z" fill="#E3E7EC"/>
<path d="M243.616 62.0528L260.695 71.0486C261.281 71.3577 261.911 71.5042 262.531 71.5042C263.949 71.5042 265.32 70.738 266.027 69.3955C267.043 67.4669 266.302 65.0796 264.374 64.0635L247.295 55.0677C245.366 54.0517 242.98 54.7914 241.963 56.7208C240.947 58.6494 241.688 61.0368 243.616 62.0528Z" fill="#E3E7EC"/>
<path d="M185 150.558C182.82 150.558 181.053 152.326 181.053 154.506V154.528C181.053 156.708 182.82 158.464 185 158.464C187.18 158.464 188.947 156.686 188.947 154.506C188.947 152.326 187.18 150.558 185 150.558Z" fill="white"/>
<path d="M27 0L29.2451 6.90983H36.5106L30.6327 11.1803L32.8779 18.0902L27 13.8197L21.1221 18.0902L23.3673 11.1803L17.4894 6.90983H24.7549L27 0Z" fill="#FFF41C"/>
<path d="M6 75L7.34708 79.1459H11.7063L8.17963 81.7082L9.52671 85.8541L6 83.2918L2.47329 85.8541L3.82037 81.7082L0.293661 79.1459H4.65292L6 75Z" fill="#E3E7EC"/>
<path d="M57 121L59.2451 127.91H66.5106L60.6327 132.18L62.8779 139.09L57 134.82L51.1221 139.09L53.3673 132.18L47.4894 127.91H54.7549L57 121Z" fill="#014492"/>
<path d="M296 47L298.245 53.9098H305.511L299.633 58.1803L301.878 65.0902L296 60.8197L290.122 65.0902L292.367 58.1803L286.489 53.9098H293.755L296 47Z" fill="#FFF41C"/>
<path d="M314 151L316.245 157.91H323.511L317.633 162.18L319.878 169.09L314 164.82L308.122 169.09L310.367 162.18L304.489 157.91H311.755L314 151Z" fill="#E3E7EC"/>
<path d="M362 21L363.123 24.4549H366.755L363.816 26.5902L364.939 30.0451L362 27.9098L359.061 30.0451L360.184 26.5902L357.245 24.4549H360.877L362 21Z" fill="#014492"/>
</svg>
