<svg width="22" height="22" viewBox="0 0 22 22" fill="none" xmlns="http://www.w3.org/2000/svg">
<path d="M10.9961 16.5144C11.3521 16.5144 11.6406 16.2257 11.6406 15.8699V13.2C11.6406 12.844 11.3521 12.5554 10.9961 12.5554C10.6403 12.5554 10.3516 12.844 10.3516 13.2V15.8699C10.3516 16.2257 10.6403 16.5144 10.9961 16.5144Z" fill="#292D32"/>
<path d="M18.3832 7.0697H15.3328V3.92996C15.3328 1.76289 13.3875 0 10.9963 0C8.60533 0 6.65999 1.76289 6.65999 3.92996V7.0697H3.60938C3.25337 7.0697 2.96484 7.3584 2.96484 7.71423V15.957C2.96484 19.2891 5.67574 22 9.00783 22H12.985C16.317 22 19.0279 19.2891 19.0279 15.957V7.71423C19.0278 7.3584 18.7392 7.0697 18.3832 7.0697ZM7.94905 3.92996C7.94905 2.47372 9.31599 1.28906 10.9963 1.28906C12.6766 1.28906 14.0437 2.47372 14.0437 3.92996V7.0697H7.94905V3.92996ZM17.7387 15.957C17.7387 18.5783 15.6062 20.7109 12.9848 20.7109H9.00783C6.38657 20.7109 4.25391 18.5783 4.25391 15.957V8.35876H17.7387V15.957Z" fill="#292D32"/>
</svg>
