<svg width="58" height="10" viewBox="0 0 58 10" fill="none" xmlns="http://www.w3.org/2000/svg">
<g clip-path="url(#clip0)">
<path d="M9.97394 3.83598C9.90848 3.6335 9.72888 3.48968 9.5164 3.47053L6.63012 3.20845L5.48881 0.537102C5.40465 0.341327 5.213 0.2146 5.00006 0.2146C4.78711 0.2146 4.59546 0.341327 4.5113 0.53756L3.36999 3.20845L0.483257 3.47053C0.271155 3.49014 0.0920117 3.6335 0.0261683 3.83598C-0.0396752 4.03847 0.0211327 4.26057 0.181583 4.40057L2.36327 6.31392L1.71994 9.14778C1.67286 9.35615 1.75374 9.57153 1.92662 9.6965C2.01955 9.76364 2.12827 9.79782 2.23791 9.79782C2.33244 9.79782 2.42621 9.77234 2.51037 9.72199L5.00006 8.23399L7.48883 9.72199C7.67095 9.83155 7.90052 9.82155 8.07303 9.6965C8.24599 9.57115 8.32679 9.35569 8.27971 9.14778L7.63639 6.31392L9.81807 4.40096C9.97852 4.26057 10.0398 4.03886 9.97394 3.83598Z" fill="#FFC107"/>
</g>
<g clip-path="url(#clip1)">
<path d="M21.9739 3.83598C21.9085 3.6335 21.7289 3.48968 21.5164 3.47053L18.6301 3.20845L17.4888 0.537102C17.4047 0.341327 17.213 0.2146 17.0001 0.2146C16.7871 0.2146 16.5955 0.341327 16.5113 0.53756L15.37 3.20845L12.4833 3.47053C12.2712 3.49014 12.092 3.6335 12.0262 3.83598C11.9603 4.03847 12.0211 4.26057 12.1816 4.40057L14.3633 6.31392L13.7199 9.14778C13.6729 9.35615 13.7537 9.57153 13.9266 9.6965C14.0196 9.76364 14.1283 9.79782 14.2379 9.79782C14.3324 9.79782 14.4262 9.77234 14.5104 9.72199L17.0001 8.23399L19.4888 9.72199C19.6709 9.83155 19.9005 9.82155 20.073 9.6965C20.246 9.57115 20.3268 9.35569 20.2797 9.14778L19.6364 6.31392L21.8181 4.40096C21.9785 4.26057 22.0398 4.03886 21.9739 3.83598Z" fill="#FFC107"/>
</g>
<g clip-path="url(#clip2)">
<path d="M33.9739 3.83598C33.9085 3.6335 33.7289 3.48968 33.5164 3.47053L30.6301 3.20845L29.4888 0.537102C29.4047 0.341327 29.213 0.2146 29.0001 0.2146C28.7871 0.2146 28.5955 0.341327 28.5113 0.53756L27.37 3.20845L24.4833 3.47053C24.2712 3.49014 24.092 3.6335 24.0262 3.83598C23.9603 4.03847 24.0211 4.26057 24.1816 4.40057L26.3633 6.31392L25.7199 9.14778C25.6729 9.35615 25.7537 9.57153 25.9266 9.6965C26.0196 9.76364 26.1283 9.79782 26.2379 9.79782C26.3324 9.79782 26.4262 9.77234 26.5104 9.72199L29.0001 8.23399L31.4888 9.72199C31.6709 9.83155 31.9005 9.82155 32.073 9.6965C32.246 9.57115 32.3268 9.35569 32.2797 9.14778L31.6364 6.31392L33.8181 4.40096C33.9785 4.26057 34.0398 4.03886 33.9739 3.83598Z" fill="#FFC107"/>
</g>
<g clip-path="url(#clip3)">
<path d="M45.9739 3.83598C45.9085 3.6335 45.7289 3.48968 45.5164 3.47053L42.6301 3.20845L41.4888 0.537102C41.4047 0.341327 41.213 0.2146 41.0001 0.2146C40.7871 0.2146 40.5955 0.341327 40.5113 0.53756L39.37 3.20845L36.4833 3.47053C36.2712 3.49014 36.092 3.6335 36.0262 3.83598C35.9603 4.03847 36.0211 4.26057 36.1816 4.40057L38.3633 6.31392L37.7199 9.14778C37.6729 9.35615 37.7537 9.57153 37.9266 9.6965C38.0196 9.76364 38.1283 9.79782 38.2379 9.79782C38.3324 9.79782 38.4262 9.77234 38.5104 9.72199L41.0001 8.23399L43.4888 9.72199C43.6709 9.83155 43.9005 9.82155 44.073 9.6965C44.246 9.57115 44.3268 9.35569 44.2797 9.14778L43.6364 6.31392L45.8181 4.40096C45.9785 4.26057 46.0398 4.03886 45.9739 3.83598Z" fill="#FFC107"/>
</g>
<g clip-path="url(#clip4)">
<path d="M57.9739 3.83598C57.9085 3.6335 57.7289 3.48968 57.5164 3.47053L54.6301 3.20845L53.4888 0.537102C53.4047 0.341327 53.213 0.2146 53.0001 0.2146C52.7871 0.2146 52.5955 0.341327 52.5113 0.53756L51.37 3.20845L48.4833 3.47053C48.2712 3.49014 48.092 3.6335 48.0262 3.83598C47.9603 4.03847 48.0211 4.26057 48.1816 4.40057L50.3633 6.31392L49.7199 9.14778C49.6729 9.35615 49.7537 9.57153 49.9266 9.6965C50.0196 9.76364 50.1283 9.79782 50.2379 9.79782C50.3324 9.79782 50.4262 9.77234 50.5104 9.72199L53.0001 8.23399L55.4888 9.72199C55.6709 9.83155 55.9005 9.82155 56.073 9.6965C56.246 9.57115 56.3268 9.35569 56.2797 9.14778L55.6364 6.31392L57.8181 4.40096C57.9785 4.26057 58.0398 4.03886 57.9739 3.83598Z" fill="#FFC107"/>
</g>
<defs>
<clipPath id="clip0">
<rect width="10" height="10" fill="white"/>
</clipPath>
<clipPath id="clip1">
<rect width="10" height="10" fill="white" transform="translate(12)"/>
</clipPath>
<clipPath id="clip2">
<rect width="10" height="10" fill="white" transform="translate(24)"/>
</clipPath>
<clipPath id="clip3">
<rect width="10" height="10" fill="white" transform="translate(36)"/>
</clipPath>
<clipPath id="clip4">
<rect width="10" height="10" fill="white" transform="translate(48)"/>
</clipPath>
</defs>
</svg>
