<svg width="26" height="26" viewBox="0 0 26 26" fill="none" xmlns="http://www.w3.org/2000/svg">
<path d="M1.08333 14.0617C1.68133 14.0617 2.16667 13.5763 2.16667 12.9783C2.16667 7.01675 6.99617 2.16667 12.9323 2.16667C15.5361 2.16667 17.9823 3.08858 19.9106 4.74446H18.9177C18.3197 4.74446 17.8344 5.22979 17.8344 5.82779C17.8344 6.42579 18.3197 6.91112 18.9177 6.91112H22.4732C23.0712 6.91112 23.5565 6.42579 23.5565 5.82779V2.25712C23.5565 1.65912 23.0712 1.17379 22.4732 1.17379C21.8752 1.17379 21.3899 1.65912 21.3899 2.25712V3.16008C19.0629 1.131 16.0951 0 12.9323 0C5.80125 0 0 5.82237 0 12.9783C0 13.5763 0.485333 14.0617 1.08333 14.0617Z" fill="#798697"/>
<path d="M24.9167 11.9384C24.3187 11.9384 23.8333 12.4237 23.8333 13.0217C23.8333 18.9833 19.0038 23.8334 13.0677 23.8334C10.4942 23.8334 8.07407 22.9342 6.15657 21.3146H7.19711C7.79511 21.3146 8.28045 20.8293 8.28045 20.2313C8.28045 19.6333 7.79511 19.1479 7.19711 19.1479H3.64107C3.63132 19.1479 3.62266 19.1506 3.61345 19.1506C3.57228 19.1517 3.53166 19.1571 3.49049 19.1631C3.46016 19.1674 3.42982 19.1701 3.40003 19.1772C3.36428 19.1853 3.32907 19.1983 3.29386 19.2102C3.26136 19.2216 3.22832 19.2314 3.19691 19.2454C3.16711 19.259 3.13895 19.2763 3.11024 19.2926C3.07611 19.3121 3.04253 19.331 3.01057 19.3538C3.00245 19.3597 2.99324 19.363 2.98511 19.3695C2.9667 19.3836 2.95261 19.4009 2.93528 19.4161C2.90657 19.441 2.87786 19.4659 2.85186 19.4941C2.82749 19.5201 2.80636 19.5471 2.78524 19.5748C2.76411 19.6024 2.74353 19.63 2.72457 19.6593C2.70561 19.6896 2.68936 19.721 2.67366 19.7524C2.65795 19.7833 2.64332 19.8147 2.63086 19.8472C2.61841 19.8808 2.60866 19.9144 2.59945 19.9491C2.59078 19.9821 2.58157 20.0151 2.57616 20.0493C2.56966 20.0877 2.56695 20.1262 2.56424 20.1652C2.56261 20.1874 2.55774 20.2091 2.55774 20.2318V23.8025C2.55774 24.4005 3.04307 24.8858 3.64107 24.8858C4.23907 24.8858 4.72441 24.4005 4.72441 23.8025V22.9412C7.03353 24.9069 9.95691 26 13.0677 26C20.1987 26 26 20.1777 26 13.0217C26 12.4237 25.5147 11.9384 24.9167 11.9384Z" fill="#798697"/>
</svg>
