<svg width="22" height="22" viewBox="0 0 22 22"  xmlns="http://www.w3.org/2000/svg">
<g clip-path="url(#clip0)">
<path d="M0.141769 7.53895C0.249271 7.43331 0.399534 7.38323 0.548965 7.40323H6.38523V4.82438C6.38523 2.27572 8.4513 0.209648 11 0.209648C13.5486 0.209648 15.6147 2.27572 15.6147 4.82438V7.40323H21.451C21.6139 7.40323 21.7768 7.40323 21.8582 7.53895C21.9677 7.64411 22.0184 7.79635 21.994 7.94614L19.958 19.0758C19.6736 20.6284 18.333 21.7645 16.7548 21.7904H5.24516C3.66246 21.7515 2.32469 20.6064 2.04199 19.0487L0.00605583 7.94614C-0.0184174 7.79635 0.0323467 7.64411 0.141769 7.53895ZM14.5289 4.82438C14.5289 2.87542 12.949 1.29547 11 1.29547C9.05105 1.29547 7.4711 2.87542 7.4711 4.82438V7.40323H14.5289V4.82438ZM3.12781 18.9129C3.31065 19.9418 4.20028 20.6945 5.24516 20.7046H16.7548C17.7997 20.6945 18.6894 19.9418 18.8722 18.9129L20.7995 8.48906H1.20047L3.12781 18.9129Z" />
<path d="M6.92779 13.7824C6.62794 13.7824 6.38488 13.5394 6.38488 13.2395V11.6108C6.38488 11.3109 6.62794 11.0679 6.92779 11.0679C7.22764 11.0679 7.4707 11.3109 7.4707 11.6108V13.2395C7.47076 13.5394 7.22764 13.7824 6.92779 13.7824Z" />
<path d="M15.0723 13.7824C14.7725 13.7824 14.5294 13.5394 14.5294 13.2395V11.6108C14.5294 11.3109 14.7725 11.0679 15.0723 11.0679C15.3722 11.0679 15.6152 11.3109 15.6152 11.6108V13.2395C15.6152 13.5394 15.3722 13.7824 15.0723 13.7824Z"/>
</g>
<defs>
<clipPath id="clip0">
<rect width="22" height="22" fill="white" transform="matrix(-1 0 0 1 22 0)"/>
</clipPath>
</defs>
</svg>
