<svg width="58" height="10" viewBox="0 0 58 10" fill="none" xmlns="http://www.w3.org/2000/svg">
<g clip-path="url(#clip0)">
<path d="M9.97394 3.83602C9.90848 3.63353 9.72888 3.48972 9.5164 3.47057L6.63012 3.20849L5.48881 0.537141C5.40465 0.341365 5.213 0.214638 5.00006 0.214638C4.78711 0.214638 4.59546 0.341365 4.5113 0.537598L3.36999 3.20849L0.483257 3.47057C0.271155 3.49017 0.0920117 3.63353 0.0261683 3.83602C-0.0396752 4.03851 0.0211327 4.26061 0.181583 4.40061L2.36327 6.31396L1.71994 9.14782C1.67286 9.35618 1.75374 9.57157 1.92662 9.69654C2.01955 9.76368 2.12827 9.79786 2.23791 9.79786C2.33244 9.79786 2.42621 9.77238 2.51037 9.72202L5.00006 8.23403L7.48883 9.72202C7.67095 9.83158 7.90052 9.82159 8.07303 9.69654C8.24599 9.57119 8.32679 9.35573 8.27971 9.14782L7.63639 6.31396L9.81807 4.40099C9.97852 4.26061 10.0398 4.03889 9.97394 3.83602Z" fill="#FFC107"/>
</g>
<g clip-path="url(#clip1)">
<path d="M21.9739 3.83602C21.9085 3.63353 21.7289 3.48972 21.5164 3.47057L18.6301 3.20849L17.4888 0.537141C17.4047 0.341365 17.213 0.214638 17.0001 0.214638C16.7871 0.214638 16.5955 0.341365 16.5113 0.537598L15.37 3.20849L12.4833 3.47057C12.2712 3.49017 12.092 3.63353 12.0262 3.83602C11.9603 4.03851 12.0211 4.26061 12.1816 4.40061L14.3633 6.31396L13.7199 9.14782C13.6729 9.35618 13.7537 9.57157 13.9266 9.69654C14.0196 9.76368 14.1283 9.79786 14.2379 9.79786C14.3324 9.79786 14.4262 9.77238 14.5104 9.72202L17.0001 8.23403L19.4888 9.72202C19.6709 9.83158 19.9005 9.82159 20.073 9.69654C20.246 9.57119 20.3268 9.35573 20.2797 9.14782L19.6364 6.31396L21.8181 4.40099C21.9785 4.26061 22.0398 4.03889 21.9739 3.83602Z" fill="#FFC107"/>
</g>
<g clip-path="url(#clip2)">
<path d="M33.9739 3.83602C33.9085 3.63353 33.7289 3.48972 33.5164 3.47057L30.6301 3.20849L29.4888 0.537141C29.4047 0.341365 29.213 0.214638 29.0001 0.214638C28.7871 0.214638 28.5955 0.341365 28.5113 0.537598L27.37 3.20849L24.4833 3.47057C24.2712 3.49017 24.092 3.63353 24.0262 3.83602C23.9603 4.03851 24.0211 4.26061 24.1816 4.40061L26.3633 6.31396L25.7199 9.14782C25.6729 9.35618 25.7537 9.57157 25.9266 9.69654C26.0196 9.76368 26.1283 9.79786 26.2379 9.79786C26.3324 9.79786 26.4262 9.77238 26.5104 9.72202L29.0001 8.23403L31.4888 9.72202C31.6709 9.83158 31.9005 9.82159 32.073 9.69654C32.246 9.57119 32.3268 9.35573 32.2797 9.14782L31.6364 6.31396L33.8181 4.40099C33.9785 4.26061 34.0398 4.03889 33.9739 3.83602Z" fill="#FFC107"/>
</g>
<g clip-path="url(#clip3)">
<path d="M45.9739 3.83602C45.9085 3.63353 45.7289 3.48972 45.5164 3.47057L42.6301 3.20849L41.4888 0.537141C41.4047 0.341365 41.213 0.214638 41.0001 0.214638C40.7871 0.214638 40.5955 0.341365 40.5113 0.537598L39.37 3.20849L36.4833 3.47057C36.2712 3.49017 36.092 3.63353 36.0262 3.83602C35.9603 4.03851 36.0211 4.26061 36.1816 4.40061L38.3633 6.31396L37.7199 9.14782C37.6729 9.35618 37.7537 9.57157 37.9266 9.69654C38.0196 9.76368 38.1283 9.79786 38.2379 9.79786C38.3324 9.79786 38.4262 9.77238 38.5104 9.72202L41.0001 8.23403L43.4888 9.72202C43.6709 9.83158 43.9005 9.82159 44.073 9.69654C44.246 9.57119 44.3268 9.35573 44.2797 9.14782L43.6364 6.31396L45.8181 4.40099C45.9785 4.26061 46.0398 4.03889 45.9739 3.83602Z" fill="#FFC107"/>
</g>
<g clip-path="url(#clip4)">
<path d="M57.9739 3.83602C57.9085 3.63353 57.7289 3.48972 57.5164 3.47057L54.6301 3.20849L53.4888 0.537141C53.4047 0.341365 53.213 0.214638 53.0001 0.214638C52.7871 0.214638 52.5955 0.341365 52.5113 0.537598L51.37 3.20849L48.4833 3.47057C48.2712 3.49017 48.092 3.63353 48.0262 3.83602C47.9603 4.03851 48.0211 4.26061 48.1816 4.40061L50.3633 6.31396L49.7199 9.14782C49.6729 9.35618 49.7537 9.57157 49.9266 9.69654C50.0196 9.76368 50.1283 9.79786 50.2379 9.79786C50.3324 9.79786 50.4262 9.77238 50.5104 9.72202L53.0001 8.23403L55.4888 9.72202C55.6709 9.83158 55.9005 9.82159 56.073 9.69654C56.246 9.57119 56.3268 9.35573 56.2797 9.14782L55.6364 6.31396L57.8181 4.40099C57.9785 4.26061 58.0398 4.03889 57.9739 3.83602Z" fill="#FFC107"/>
</g>
<defs>
<clipPath id="clip0">
<rect width="10" height="10" fill="white"/>
</clipPath>
<clipPath id="clip1">
<rect width="10" height="10" fill="white" transform="translate(12)"/>
</clipPath>
<clipPath id="clip2">
<rect width="10" height="10" fill="white" transform="translate(24)"/>
</clipPath>
<clipPath id="clip3">
<rect width="10" height="10" fill="white" transform="translate(36)"/>
</clipPath>
<clipPath id="clip4">
<rect width="10" height="10" fill="white" transform="translate(48)"/>
</clipPath>
</defs>
</svg>
