<svg width="30" height="30" viewBox="0 0 30 30" fill="none" xmlns="http://www.w3.org/2000/svg">
<g clip-path="url(#clip0)">
<path d="M6.06668 17.1167C4.63277 17.1167 3.46667 18.2828 3.46667 19.7167C3.46667 21.1506 4.63277 22.3167 6.06668 22.3167C7.50059 22.3167 8.66668 21.1506 8.66668 19.7167C8.66668 18.2828 7.50054 17.1167 6.06668 17.1167ZM6.06668 21.45C5.11072 21.45 4.33336 20.6726 4.33336 19.7167C4.33336 18.7607 5.11077 17.9834 6.06668 17.9834C7.02258 17.9834 7.79999 18.7608 7.79999 19.7167C7.79999 20.6726 7.02258 21.45 6.06668 21.45Z" fill="#798697" stroke="#798697" stroke-width="0.5"/>
<path d="M20.8 17.1167C19.3661 17.1167 18.2 18.2828 18.2 19.7167C18.2 21.1506 19.3661 22.3167 20.8 22.3167C22.2339 22.3167 23.4 21.1506 23.4 19.7167C23.4 18.2828 22.2339 17.1167 20.8 17.1167ZM20.8 21.45C19.8441 21.45 19.0667 20.6726 19.0667 19.7167C19.0667 18.7607 19.8441 17.9834 20.8 17.9834C21.756 17.9834 22.5333 18.7608 22.5333 19.7167C22.5333 20.6726 21.756 21.45 20.8 21.45Z" fill="#798697" stroke="#798697" stroke-width="0.5"/>
<path d="M25.9311 14.7155L22.0311 8.64886C21.9514 8.5249 21.814 8.44995 21.6666 8.44995H16.9C16.6604 8.44995 16.4667 8.64409 16.4667 8.88327V19.7166C16.4667 19.9562 16.6604 20.1499 16.9 20.1499H18.6333V19.2832H17.3333V9.31663H21.43L25.1333 15.0774V19.2833H22.9666V20.1499H25.5666C25.8063 20.1499 25.9999 19.9563 25.9999 19.7166V14.9499C26 14.8672 25.9762 14.7853 25.9311 14.7155Z" fill="#798697" stroke="#798697" stroke-width="0.5"/>
<path d="M19.0667 14.0834V11.05H22.5334V10.1833H18.6334C18.3938 10.1833 18.2001 10.3775 18.2001 10.6167V14.5167C18.2001 14.7563 18.3938 14.95 18.6334 14.95H25.1334V14.0833H19.0667V14.0834Z" fill="#798697" stroke="#798697" stroke-width="0.5"/>
<path d="M16.9 5.41675H0.433316C0.194137 5.41675 0 5.61088 0 5.85006V19.7168C0 19.9564 0.194137 20.1501 0.433316 20.1501H3.9V19.2834H0.866684V6.28338H16.4667V19.2834H8.23332V20.1501H16.9C17.1396 20.1501 17.3333 19.9564 17.3333 19.7168V5.85006C17.3333 5.61088 17.1396 5.41675 16.9 5.41675Z" fill="#798697" stroke="#798697" stroke-width="0.5"/>
<path d="M3.03329 17.55H0.433289V18.4167H3.03329V17.55Z" fill="#798697" stroke="#798697" stroke-width="0.5"/>
<path d="M16.4667 17.55H9.09998V18.4167H16.4667V17.55Z" fill="#798697" stroke="#798697" stroke-width="0.5"/>
<path d="M25.5666 17.55H23.8333V18.4167H25.5666V17.55Z" fill="#798697" stroke="#798697" stroke-width="0.5"/>
<path d="M16.9 7.15002H1.73334V8.01671H16.9V7.15002Z" fill="#798697" stroke="#798697" stroke-width="0.5"/>
<path d="M6.49998 19.2833H5.6333V20.15H6.49998V19.2833Z" fill="#798697" stroke="#798697" stroke-width="0.5"/>
<path d="M21.2334 19.2833H20.3667V20.15H21.2334V19.2833Z" fill="#798697" stroke="#798697" stroke-width="0.5"/>
</g>
<defs>
<clipPath id="clip0">
<rect width="30" height="30" fill="white"/>
</clipPath>
</defs>
</svg>
