<svg width="26" height="26" viewBox="0 0 26 26" fill="none" xmlns="http://www.w3.org/2000/svg">
<path d="M24.0528 4.48276H1.94721C0.871762 4.48276 0 5.35452 0 6.42996V19.5701C0 20.6455 0.871762 21.5173 1.94721 21.5173H24.0528C25.1282 21.5173 26 20.6455 26 19.5701V6.42996C26 5.35452 25.1282 4.48276 24.0528 4.48276Z" fill="#F5F5F5"/>
<path d="M0.107117 5.79312H25.8929C25.629 5.03054 24.9051 4.48276 24.0528 4.48276H1.94723C1.09491 4.48276 0.371027 5.03054 0.107117 5.79312Z" fill="#FF4B55"/>
<path d="M26 9.72409H0V11.0344H26V9.72409Z" fill="#FF4B55"/>
<path d="M26 7.10327H0V8.41358H26V7.10327Z" fill="#FF4B55"/>
<path d="M0 13.2069C0 13.4544 0.200738 13.6552 0.448297 13.6552H26V12.3448H0V13.2069Z" fill="#FF4B55"/>
<path d="M26 17.5865H0V18.8969H26V17.5865Z" fill="#FF4B55"/>
<path d="M25.8929 20.2069H0.107117C0.371027 20.9695 1.09496 21.5172 1.94723 21.5172H24.0528C24.9051 21.5172 25.629 20.9695 25.8929 20.2069Z" fill="#FF4B55"/>
<path d="M26 14.9657H0V16.276H26V14.9657Z" fill="#FF4B55"/>
<path d="M0.448297 13.6552H11.6552C11.9028 13.6552 12.1035 13.4544 12.1035 13.2069V4.93099C12.1035 4.68338 11.9028 4.4827 11.6552 4.4827H1.94721C0.871762 4.48275 0 5.35451 0 6.42995V13.2069C0 13.4545 0.200738 13.6552 0.448297 13.6552Z" fill="#41479B"/>
<path d="M1.2588 5.51175L1.35803 5.80933L1.67171 5.81171C1.71233 5.81207 1.72914 5.86387 1.69649 5.88799L1.44416 6.0743L1.53881 6.37336C1.5511 6.41205 1.50697 6.44414 1.47391 6.42048L1.21874 6.23813L0.963562 6.42053C0.930504 6.4442 0.886476 6.4121 0.898664 6.37341L0.99332 6.07436L0.740988 5.88804C0.708336 5.86387 0.725144 5.81207 0.765769 5.81177L1.07944 5.80938L1.17867 5.5118C1.19147 5.47321 1.24591 5.47321 1.2588 5.51175Z" fill="#F5F5F5"/>
<path d="M1.2588 7.06829L1.35803 7.36587L1.67171 7.36826C1.71233 7.36861 1.72914 7.42036 1.69649 7.44453L1.44416 7.6309L1.53881 7.92995C1.5511 7.96864 1.50697 8.00074 1.47391 7.97707L1.21874 7.79472L0.963562 7.97712C0.930504 8.00074 0.886476 7.96869 0.898664 7.93L0.99332 7.63095L0.740988 7.44458C0.708336 7.42041 0.725144 7.36866 0.765769 7.36831L1.07944 7.36592L1.17867 7.06834C1.19147 7.0298 1.24591 7.0298 1.2588 7.06829Z" fill="#F5F5F5"/>
<path d="M1.2588 8.625L1.35803 8.92258L1.67171 8.92497C1.71233 8.92532 1.72914 8.97707 1.69649 9.00124L1.44416 9.18761L1.53881 9.48666C1.5511 9.52535 1.50697 9.55745 1.47391 9.53378L1.21874 9.35143L0.963562 9.53383C0.930504 9.55745 0.886476 9.52546 0.898664 9.48671L0.99332 9.18766L0.740988 9.00129C0.708336 8.97712 0.725144 8.92537 0.765769 8.92502L1.07944 8.92263L1.17867 8.62505C1.19147 8.58646 1.24591 8.58646 1.2588 8.625Z" fill="#F5F5F5"/>
<path d="M1.2588 10.1816L1.35803 10.4792L1.67171 10.4816C1.71233 10.482 1.72914 10.5338 1.69649 10.5579L1.44416 10.7442L1.53881 11.0433C1.5511 11.082 1.50697 11.1141 1.47391 11.0904L1.21874 10.9081L0.963562 11.0905C0.930504 11.1141 0.886476 11.082 0.898664 11.0433L0.99332 10.7443L0.740988 10.5579C0.708336 10.5339 0.725144 10.482 0.765769 10.4817L1.07944 10.4793L1.17867 10.1817C1.19147 10.1431 1.24591 10.1431 1.2588 10.1816Z" fill="#F5F5F5"/>
<path d="M1.2588 11.7383L1.35803 12.0359L1.67171 12.0382C1.71233 12.0386 1.72914 12.0903 1.69649 12.1145L1.44416 12.3009L1.53881 12.5999C1.5511 12.6386 1.50697 12.6707 1.47391 12.6471L1.21874 12.4647L0.963562 12.6471C0.930504 12.6707 0.886476 12.6387 0.898664 12.6L0.99332 12.3009L0.740988 12.1146C0.708336 12.0904 0.725144 12.0386 0.765769 12.0383L1.07944 12.0359L1.17867 11.7383C1.19147 11.6998 1.24591 11.6998 1.2588 11.7383Z" fill="#F5F5F5"/>
<path d="M2.467 6.27481L2.56622 6.57239L2.8799 6.57478C2.92052 6.57513 2.93733 6.62693 2.90468 6.65105L2.65235 6.83742L2.747 7.13647C2.75929 7.17516 2.71516 7.20726 2.6821 7.18359L2.42693 7.00119L2.17175 7.18359C2.13869 7.20721 2.09467 7.17516 2.10685 7.13647L2.20151 6.83742L1.94918 6.65105C1.91653 6.62688 1.93334 6.57513 1.97396 6.57478L2.28764 6.57239L2.38686 6.27481C2.39966 6.23632 2.45415 6.23632 2.467 6.27481Z" fill="#F5F5F5"/>
<path d="M2.467 7.83152L2.56622 8.1291L2.8799 8.13148C2.92052 8.13184 2.93733 8.18364 2.90468 8.20776L2.65235 8.39413L2.747 8.69318C2.75929 8.73187 2.71516 8.76397 2.6821 8.7403L2.42693 8.55789L2.17175 8.7403C2.13869 8.76391 2.09467 8.73192 2.10685 8.69318L2.20151 8.39413L1.94918 8.20776C1.91653 8.18369 1.93334 8.13184 1.97396 8.13148L2.28764 8.1291L2.38686 7.83152C2.39966 7.79298 2.45415 7.79298 2.467 7.83152Z" fill="#F5F5F5"/>
<path d="M2.467 9.38816L2.56622 9.68574L2.8799 9.68813C2.92052 9.68848 2.93733 9.74023 2.90468 9.7644L2.65235 9.95077L2.747 10.2498C2.75929 10.2885 2.71516 10.3206 2.6821 10.2969L2.42693 10.1145L2.17175 10.2969C2.13869 10.3206 2.09467 10.2885 2.10685 10.2498L2.20151 9.95077L1.94918 9.7644C1.91653 9.74023 1.93334 9.68848 1.97396 9.68813L2.28764 9.68574L2.38686 9.38816C2.39966 9.34962 2.45415 9.34962 2.467 9.38816Z" fill="#F5F5F5"/>
<path d="M2.467 10.9448L2.56622 11.2424L2.8799 11.2448C2.92052 11.2451 2.93733 11.2969 2.90468 11.3211L2.65235 11.5074L2.747 11.8065C2.75929 11.8452 2.71516 11.8773 2.6821 11.8536L2.42693 11.6712L2.17175 11.8536C2.13869 11.8773 2.09467 11.8452 2.10685 11.8065L2.20151 11.5074L1.94918 11.3211C1.91653 11.2969 1.93334 11.2451 1.97396 11.2448L2.28764 11.2424L2.38686 10.9448C2.39966 10.9063 2.45415 10.9063 2.467 10.9448Z" fill="#F5F5F5"/>
<path d="M3.67531 5.51163L3.77453 5.80921L4.08821 5.8116C4.12884 5.81195 4.14564 5.86375 4.11299 5.88787L3.86066 6.07419L3.95532 6.37324C3.9676 6.41193 3.92348 6.44403 3.89042 6.42036L3.63524 6.23796L3.38007 6.42036C3.34701 6.44403 3.30298 6.41193 3.31517 6.37324L3.40982 6.07419L3.15749 5.88787C3.12484 5.8637 3.14165 5.8119 3.18227 5.8116L3.49595 5.80921L3.59518 5.51163C3.60797 5.47309 3.66246 5.47309 3.67531 5.51163Z" fill="#F5F5F5"/>
<path d="M3.67531 7.06827L3.77453 7.36585L4.08821 7.36823C4.12884 7.36859 4.14564 7.42033 4.11299 7.44451L3.86066 7.63087L3.95532 7.92993C3.9676 7.96862 3.92348 8.00071 3.89042 7.97705L3.63524 7.79464L3.38007 7.97705C3.34701 8.00066 3.30298 7.96862 3.31517 7.92993L3.40982 7.63087L3.15749 7.44451C3.12484 7.42033 3.14165 7.36859 3.18227 7.36823L3.49595 7.36585L3.59518 7.06827C3.60797 7.02978 3.66246 7.02978 3.67531 7.06827Z" fill="#F5F5F5"/>
<path d="M3.67531 8.62498L3.77453 8.92255L4.08821 8.92494C4.12884 8.9253 4.14564 8.97704 4.11299 9.00122L3.86066 9.18758L3.95532 9.48663C3.9676 9.52533 3.92348 9.55742 3.89042 9.53376L3.63524 9.35135L3.38007 9.53376C3.34701 9.55737 3.30298 9.52538 3.31517 9.48663L3.40982 9.18758L3.15749 9.00122C3.12484 8.97704 3.14165 8.9253 3.18227 8.92494L3.49595 8.92255L3.59518 8.62498C3.60797 8.58643 3.66246 8.58643 3.67531 8.62498Z" fill="#F5F5F5"/>
<path d="M3.67531 10.1816L3.77453 10.4792L4.08821 10.4816C4.12884 10.4819 4.14564 10.5337 4.11299 10.5579L3.86066 10.7442L3.95532 11.0433C3.9676 11.082 3.92348 11.1141 3.89042 11.0904L3.63524 10.908L3.38007 11.0904C3.34701 11.114 3.30298 11.082 3.31517 11.0433L3.40982 10.7442L3.15749 10.5579C3.12484 10.5338 3.14165 10.4819 3.18227 10.4816L3.49595 10.4792L3.59518 10.1816C3.60797 10.1431 3.66246 10.1431 3.67531 10.1816Z" fill="#F5F5F5"/>
<path d="M3.67531 11.7383L3.77453 12.0359L4.08821 12.0382C4.12884 12.0386 4.14564 12.0903 4.11299 12.1145L3.86066 12.3009L3.95532 12.5999C3.9676 12.6386 3.92348 12.6707 3.89042 12.6471L3.63524 12.4647L3.38007 12.6471C3.34701 12.6707 3.30298 12.6386 3.31517 12.5999L3.40982 12.3009L3.15749 12.1145C3.12484 12.0903 3.14165 12.0386 3.18227 12.0382L3.49595 12.0359L3.59518 11.7383C3.60797 11.6998 3.66246 11.6998 3.67531 11.7383Z" fill="#F5F5F5"/>
<path d="M4.88356 6.27481L4.98279 6.57239L5.29646 6.57478C5.33709 6.57513 5.3539 6.62693 5.32124 6.65105L5.06891 6.83742L5.16357 7.13647C5.17586 7.17516 5.13173 7.20726 5.09867 7.18359L4.84349 7.00119L4.58832 7.18359C4.55526 7.20721 4.51123 7.17516 4.52342 7.13647L4.61808 6.83742L4.36574 6.65105C4.33309 6.62688 4.3499 6.57513 4.39053 6.57478L4.7042 6.57239L4.80343 6.27481C4.81617 6.23632 4.87071 6.23632 4.88356 6.27481Z" fill="#F5F5F5"/>
<path d="M4.88356 7.83152L4.98279 8.1291L5.29646 8.13148C5.33709 8.13184 5.3539 8.18364 5.32124 8.20776L5.06891 8.39413L5.16357 8.69318C5.17586 8.73187 5.13173 8.76397 5.09867 8.7403L4.84349 8.55789L4.58832 8.7403C4.55526 8.76391 4.51123 8.73192 4.52342 8.69318L4.61808 8.39413L4.36574 8.20776C4.33309 8.18369 4.3499 8.13184 4.39053 8.13148L4.7042 8.1291L4.80343 7.83152C4.81617 7.79298 4.87071 7.79298 4.88356 7.83152Z" fill="#F5F5F5"/>
<path d="M4.88356 9.38816L4.98279 9.68574L5.29646 9.68813C5.33709 9.68848 5.3539 9.74023 5.32124 9.7644L5.06891 9.95077L5.16357 10.2498C5.17586 10.2885 5.13173 10.3206 5.09867 10.2969L4.84349 10.1145L4.58832 10.2969C4.55526 10.3206 4.51123 10.2885 4.52342 10.2498L4.61808 9.95077L4.36574 9.7644C4.33309 9.74023 4.3499 9.68848 4.39053 9.68813L4.7042 9.68574L4.80343 9.38816C4.81617 9.34962 4.87071 9.34962 4.88356 9.38816Z" fill="#F5F5F5"/>
<path d="M4.88356 10.9448L4.98279 11.2424L5.29646 11.2448C5.33709 11.2451 5.3539 11.2969 5.32124 11.3211L5.06891 11.5074L5.16357 11.8065C5.17586 11.8452 5.13173 11.8773 5.09867 11.8536L4.84349 11.6712L4.58832 11.8536C4.55526 11.8773 4.51123 11.8452 4.52342 11.8065L4.61808 11.5074L4.36574 11.3211C4.33309 11.2969 4.3499 11.2451 4.39053 11.2448L4.7042 11.2424L4.80343 10.9448C4.81617 10.9063 4.87071 10.9063 4.88356 10.9448Z" fill="#F5F5F5"/>
<path d="M6.0918 5.51163L6.19103 5.80921L6.5047 5.81159C6.54533 5.81195 6.56214 5.86374 6.52948 5.88787L6.27715 6.07418L6.37181 6.37323C6.3841 6.41193 6.33997 6.44402 6.30691 6.42036L6.05168 6.238L5.79651 6.42041C5.76345 6.44407 5.71942 6.41198 5.73161 6.37328L5.82627 6.07423L5.57393 5.88792C5.54128 5.86374 5.55809 5.81195 5.59872 5.81164L5.91239 5.80926L6.01162 5.51168C6.02447 5.47308 6.07895 5.47308 6.0918 5.51163Z" fill="#F5F5F5"/>
<path d="M6.0918 7.06827L6.19103 7.36585L6.5047 7.36823C6.54533 7.36859 6.56214 7.42033 6.52948 7.44451L6.27715 7.63087L6.37181 7.92993C6.3841 7.96862 6.33997 8.00071 6.30691 7.97705L6.05168 7.79464L5.79651 7.97705C5.76345 8.00066 5.71942 7.96862 5.73161 7.92993L5.82627 7.63087L5.57393 7.44451C5.54128 7.42033 5.55809 7.36859 5.59872 7.36823L5.91239 7.36585L6.01162 7.06827C6.02447 7.02978 6.07895 7.02978 6.0918 7.06827Z" fill="#F5F5F5"/>
<path d="M6.0918 8.62498L6.19103 8.92256L6.5047 8.92495C6.54533 8.9253 6.56214 8.97705 6.52948 9.00122L6.27715 9.18759L6.37181 9.48664C6.3841 9.52533 6.33997 9.55743 6.30691 9.53376L6.05168 9.35131L5.79651 9.53371C5.76345 9.55733 5.71942 9.52528 5.73161 9.48659L5.82627 9.18754L5.57393 9.00117C5.54128 8.977 5.55809 8.92525 5.59872 8.9249L5.91239 8.92251L6.01162 8.62493C6.02447 8.58644 6.07895 8.58644 6.0918 8.62498Z" fill="#F5F5F5"/>
<path d="M6.0918 10.1816L6.19103 10.4792L6.5047 10.4816C6.54533 10.4819 6.56214 10.5337 6.52948 10.5579L6.27715 10.7442L6.37181 11.0433C6.3841 11.082 6.33997 11.1141 6.30691 11.0904L6.05168 10.908L5.79651 11.0904C5.76345 11.114 5.71942 11.082 5.73161 11.0433L5.82627 10.7442L5.57393 10.5579C5.54128 10.5338 5.55809 10.4819 5.59872 10.4816L5.91239 10.4792L6.01162 10.1816C6.02447 10.1431 6.07895 10.1431 6.0918 10.1816Z" fill="#F5F5F5"/>
<path d="M6.0918 11.7383L6.19103 12.0359L6.5047 12.0382C6.54533 12.0386 6.56214 12.0903 6.52948 12.1145L6.27715 12.3009L6.37181 12.5999C6.3841 12.6386 6.33997 12.6707 6.30691 12.6471L6.05168 12.4647L5.79651 12.6471C5.76345 12.6707 5.71942 12.6386 5.73161 12.5999L5.82627 12.3009L5.57393 12.1145C5.54128 12.0903 5.55809 12.0386 5.59872 12.0382L5.91239 12.0359L6.01162 11.7383C6.02447 11.6998 6.07895 11.6998 6.0918 11.7383Z" fill="#F5F5F5"/>
<path d="M7.3 6.27481L7.39923 6.57239L7.71291 6.57478C7.75353 6.57513 7.77034 6.62693 7.73769 6.65105L7.48535 6.83742L7.58001 7.13647C7.5923 7.17516 7.54817 7.20726 7.51511 7.18359L7.25994 7.00119L7.00476 7.18359C6.9717 7.20721 6.92767 7.17516 6.93986 7.13647L7.03452 6.83742L6.78219 6.65105C6.74953 6.62688 6.76634 6.57513 6.80697 6.57478L7.12064 6.57239L7.21987 6.27481C7.23272 6.23632 7.28716 6.23632 7.3 6.27481Z" fill="#F5F5F5"/>
<path d="M7.3 7.83152L7.39923 8.1291L7.71291 8.13148C7.75353 8.13184 7.77034 8.18364 7.73769 8.20776L7.48535 8.39413L7.58001 8.69318C7.5923 8.73187 7.54817 8.76397 7.51511 8.7403L7.25994 8.55789L7.00476 8.7403C6.9717 8.76391 6.92767 8.73192 6.93986 8.69318L7.03452 8.39413L6.78219 8.20776C6.74953 8.18369 6.76634 8.13184 6.80697 8.13148L7.12064 8.1291L7.21987 7.83152C7.23272 7.79298 7.28716 7.79298 7.3 7.83152Z" fill="#F5F5F5"/>
<path d="M7.3 9.38816L7.39923 9.68574L7.71291 9.68813C7.75353 9.68848 7.77034 9.74023 7.73769 9.7644L7.48535 9.95077L7.58001 10.2498C7.5923 10.2885 7.54817 10.3206 7.51511 10.2969L7.25994 10.1145L7.00476 10.2969C6.9717 10.3206 6.92767 10.2885 6.93986 10.2498L7.03452 9.95077L6.78219 9.7644C6.74953 9.74023 6.76634 9.68848 6.80697 9.68813L7.12064 9.68574L7.21987 9.38816C7.23272 9.34962 7.28716 9.34962 7.3 9.38816Z" fill="#F5F5F5"/>
<path d="M7.3 10.9448L7.39923 11.2424L7.71291 11.2448C7.75353 11.2451 7.77034 11.2969 7.73769 11.3211L7.48535 11.5074L7.58001 11.8065C7.5923 11.8452 7.54817 11.8773 7.51511 11.8536L7.25994 11.6712L7.00476 11.8536C6.9717 11.8773 6.92767 11.8452 6.93986 11.8065L7.03452 11.5074L6.78219 11.3211C6.74953 11.2969 6.76634 11.2451 6.80697 11.2448L7.12064 11.2424L7.21987 10.9448C7.23272 10.9063 7.28716 10.9063 7.3 10.9448Z" fill="#F5F5F5"/>
<path d="M8.50832 5.51163L8.60754 5.80921L8.92122 5.8116C8.96184 5.81195 8.97865 5.86375 8.946 5.88787L8.69367 6.07419L8.78832 6.37324C8.80061 6.41193 8.75648 6.44403 8.72343 6.42036L8.46825 6.23796L8.21307 6.42036C8.18002 6.44403 8.13599 6.41193 8.14818 6.37324L8.24283 6.07419L7.9905 5.88787C7.95785 5.8637 7.97466 5.8119 8.01528 5.8116L8.32896 5.80921L8.42818 5.51163C8.44093 5.47309 8.49547 5.47309 8.50832 5.51163Z" fill="#F5F5F5"/>
<path d="M8.50832 7.06827L8.60754 7.36585L8.92122 7.36823C8.96184 7.36859 8.97865 7.42033 8.946 7.44451L8.69367 7.63087L8.78832 7.92993C8.80061 7.96862 8.75648 8.00071 8.72343 7.97705L8.46825 7.79464L8.21307 7.97705C8.18002 8.00066 8.13599 7.96862 8.14818 7.92993L8.24283 7.63087L7.9905 7.44451C7.95785 7.42033 7.97466 7.36859 8.01528 7.36823L8.32896 7.36585L8.42818 7.06827C8.44093 7.02978 8.49547 7.02978 8.50832 7.06827Z" fill="#F5F5F5"/>
<path d="M8.50832 8.62498L8.60754 8.92255L8.92122 8.92494C8.96184 8.9253 8.97865 8.97704 8.946 9.00122L8.69367 9.18758L8.78832 9.48663C8.80061 9.52533 8.75648 9.55742 8.72343 9.53376L8.46825 9.35135L8.21307 9.53376C8.18002 9.55737 8.13599 9.52538 8.14818 9.48663L8.24283 9.18758L7.9905 9.00122C7.95785 8.97704 7.97466 8.9253 8.01528 8.92494L8.32896 8.92255L8.42818 8.62498C8.44093 8.58643 8.49547 8.58643 8.50832 8.62498Z" fill="#F5F5F5"/>
<path d="M8.50832 10.1816L8.60754 10.4792L8.92122 10.4816C8.96184 10.4819 8.97865 10.5337 8.946 10.5579L8.69367 10.7442L8.78832 11.0433C8.80061 11.082 8.75648 11.1141 8.72343 11.0904L8.46825 10.908L8.21307 11.0904C8.18002 11.114 8.13599 11.082 8.14818 11.0433L8.24283 10.7442L7.9905 10.5579C7.95785 10.5338 7.97466 10.4819 8.01528 10.4816L8.32896 10.4792L8.42818 10.1816C8.44093 10.1431 8.49547 10.1431 8.50832 10.1816Z" fill="#F5F5F5"/>
<path d="M8.50832 11.7383L8.60754 12.0359L8.92122 12.0382C8.96184 12.0386 8.97865 12.0903 8.946 12.1145L8.69367 12.3009L8.78832 12.5999C8.80061 12.6386 8.75648 12.6707 8.72343 12.6471L8.46825 12.4647L8.21307 12.6471C8.18002 12.6707 8.13599 12.6386 8.14818 12.5999L8.24283 12.3009L7.9905 12.1145C7.95785 12.0903 7.97466 12.0386 8.01528 12.0382L8.32896 12.0359L8.42818 11.7383C8.44093 11.6998 8.49547 11.6998 8.50832 11.7383Z" fill="#F5F5F5"/>
<path d="M9.71657 6.27481L9.81579 6.57239L10.1295 6.57478C10.1701 6.57513 10.1869 6.62693 10.1543 6.65105L9.90192 6.83742L9.99658 7.13647C10.0089 7.17516 9.96474 7.20726 9.93168 7.18359L9.6765 7.00119L9.42133 7.18359C9.38827 7.20721 9.34424 7.17516 9.35643 7.13647L9.45108 6.83742L9.19875 6.65105C9.1661 6.62688 9.18291 6.57513 9.22353 6.57478L9.53721 6.57239L9.63644 6.27481C9.64923 6.23632 9.70372 6.23632 9.71657 6.27481Z" fill="#F5F5F5"/>
<path d="M9.71657 7.83152L9.81579 8.1291L10.1295 8.13148C10.1701 8.13184 10.1869 8.18364 10.1543 8.20776L9.90192 8.39413L9.99658 8.69318C10.0089 8.73187 9.96474 8.76397 9.93168 8.7403L9.6765 8.55789L9.42133 8.7403C9.38827 8.76391 9.34424 8.73192 9.35643 8.69318L9.45108 8.39413L9.19875 8.20776C9.1661 8.18369 9.18291 8.13184 9.22353 8.13148L9.53721 8.1291L9.63644 7.83152C9.64923 7.79298 9.70372 7.79298 9.71657 7.83152Z" fill="#F5F5F5"/>
<path d="M9.71657 9.38816L9.81579 9.68574L10.1295 9.68813C10.1701 9.68848 10.1869 9.74023 10.1543 9.7644L9.90192 9.95077L9.99658 10.2498C10.0089 10.2885 9.96474 10.3206 9.93168 10.2969L9.6765 10.1145L9.42133 10.2969C9.38827 10.3206 9.34424 10.2885 9.35643 10.2498L9.45108 9.95077L9.19875 9.7644C9.1661 9.74023 9.18291 9.68848 9.22353 9.68813L9.53721 9.68574L9.63644 9.38816C9.64923 9.34962 9.70372 9.34962 9.71657 9.38816Z" fill="#F5F5F5"/>
<path d="M9.71657 10.9448L9.81579 11.2424L10.1295 11.2448C10.1701 11.2451 10.1869 11.2969 10.1543 11.3211L9.90192 11.5074L9.99658 11.8065C10.0089 11.8452 9.96474 11.8773 9.93168 11.8536L9.6765 11.6712L9.42133 11.8536C9.38827 11.8773 9.34424 11.8452 9.35643 11.8065L9.45108 11.5074L9.19875 11.3211C9.1661 11.2969 9.18291 11.2451 9.22353 11.2448L9.53721 11.2424L9.63644 10.9448C9.64923 10.9063 9.70372 10.9063 9.71657 10.9448Z" fill="#F5F5F5"/>
<path d="M10.9249 5.51163L11.0241 5.80921L11.3378 5.8116C11.3784 5.81195 11.3952 5.86375 11.3626 5.88787L11.1102 6.07419L11.2049 6.37324C11.2172 6.41193 11.173 6.44403 11.14 6.42036L10.8848 6.23796L10.6296 6.42036C10.5966 6.44403 10.5526 6.41193 10.5647 6.37324L10.6594 6.07419L10.4071 5.88787C10.3744 5.8637 10.3912 5.8119 10.4318 5.8116L10.7455 5.80921L10.8447 5.51163C10.8575 5.47309 10.912 5.47309 10.9249 5.51163Z" fill="#F5F5F5"/>
<path d="M10.9249 7.06827L11.0241 7.36585L11.3378 7.36823C11.3784 7.36859 11.3952 7.42033 11.3626 7.44451L11.1102 7.63087L11.2049 7.92993C11.2172 7.96862 11.173 8.00071 11.14 7.97705L10.8848 7.79464L10.6296 7.97705C10.5966 8.00066 10.5526 7.96862 10.5647 7.92993L10.6594 7.63087L10.4071 7.44451C10.3744 7.42033 10.3912 7.36859 10.4318 7.36823L10.7455 7.36585L10.8447 7.06827C10.8575 7.02978 10.912 7.02978 10.9249 7.06827Z" fill="#F5F5F5"/>
<path d="M10.9249 8.62498L11.0241 8.92255L11.3378 8.92494C11.3784 8.9253 11.3952 8.97704 11.3626 9.00122L11.1102 9.18758L11.2049 9.48663C11.2172 9.52533 11.173 9.55742 11.14 9.53376L10.8848 9.35135L10.6296 9.53376C10.5966 9.55737 10.5526 9.52538 10.5647 9.48663L10.6594 9.18758L10.4071 9.00122C10.3744 8.97704 10.3912 8.9253 10.4318 8.92494L10.7455 8.92255L10.8447 8.62498C10.8575 8.58643 10.912 8.58643 10.9249 8.62498Z" fill="#F5F5F5"/>
<path d="M10.9249 10.1816L11.0241 10.4792L11.3378 10.4816C11.3784 10.4819 11.3952 10.5337 11.3626 10.5579L11.1102 10.7442L11.2049 11.0433C11.2172 11.082 11.173 11.1141 11.14 11.0904L10.8848 10.908L10.6296 11.0904C10.5966 11.114 10.5526 11.082 10.5647 11.0433L10.6594 10.7442L10.4071 10.5579C10.3744 10.5338 10.3912 10.4819 10.4318 10.4816L10.7455 10.4792L10.8447 10.1816C10.8575 10.1431 10.912 10.1431 10.9249 10.1816Z" fill="#F5F5F5"/>
<path d="M10.9249 11.7383L11.0241 12.0359L11.3378 12.0382C11.3784 12.0386 11.3952 12.0903 11.3626 12.1145L11.1102 12.3009L11.2049 12.5999C11.2172 12.6386 11.173 12.6707 11.14 12.6471L10.8848 12.4647L10.6296 12.6471C10.5966 12.6707 10.5526 12.6386 10.5647 12.5999L10.6594 12.3009L10.4071 12.1145C10.3744 12.0903 10.3912 12.0386 10.4318 12.0382L10.7455 12.0359L10.8447 11.7383C10.8575 11.6998 10.912 11.6998 10.9249 11.7383Z" fill="#F5F5F5"/>
</svg>
