<svg width="18" height="18" viewBox="0 0 18 18" fill="none" xmlns="http://www.w3.org/2000/svg">
<g clip-path="url(#clip0)">
<path d="M14.9563 15.4296H2.97126C1.55237 15.4296 0.357468 14.3671 0.191986 12.9576C-0.0639955 10.7843 -0.0639955 7.24687 0.191986 5.07294C0.357468 3.66394 1.55223 2.60156 2.97126 2.60156H14.9694C16.3837 2.60156 17.5779 3.65982 17.7479 5.06347L17.8443 5.86053C18.0438 7.50752 18.0528 10.1878 17.8646 11.8349L17.7369 12.9492C17.5751 14.363 16.38 15.4296 14.9563 15.4296ZM2.97126 3.82324C2.17186 3.82324 1.49868 4.42228 1.40529 5.21563C1.15865 7.31114 1.15865 10.7199 1.40529 12.8149C1.49854 13.6089 2.17186 14.2078 2.97126 14.2078H14.9564C15.7584 14.2078 16.4319 13.6071 16.5229 12.8102L16.6506 11.6958C16.8301 10.128 16.8215 7.57604 16.6315 6.00719L16.5351 5.21013C16.4393 4.4198 15.7661 3.82324 14.9694 3.82324H2.97126Z" fill="#FE0000"/>
<path d="M11.4104 9.01563L7.14441 6.87769V11.1537L11.4104 9.01563Z" fill="#FE0000"/>
<path d="M7.14453 11.7644C7.03302 11.7644 6.92178 11.7341 6.82359 11.6731C6.64355 11.5623 6.53369 11.3654 6.53369 11.1536V6.87758C6.53369 6.66582 6.64355 6.46889 6.82359 6.35792C7.00404 6.24641 7.22899 6.23625 7.41837 6.33169L11.6842 8.46964C11.8909 8.57291 12.0212 8.78399 12.0212 9.01552C12.0212 9.24692 11.8909 9.45814 11.6842 9.56127L7.41837 11.6994C7.33185 11.743 7.23819 11.7644 7.14453 11.7644ZM7.75537 7.86717V10.1639L10.047 9.01552L7.75537 7.86717Z" fill="#FE0000"/>
</g>
<defs>
<clipPath id="clip0">
<rect width="18" height="18" fill="white"/>
</clipPath>
</defs>
</svg>
