<svg width="26" height="26" viewBox="0 0 26 26" fill="none" xmlns="http://www.w3.org/2000/svg">
<circle cx="13" cy="13" r="13" fill="#FE0000"/>
<path d="M16.9708 17H8.98083C8.03491 17 7.23831 16.3374 7.12799 15.4583C6.95734 14.103 6.95734 11.897 7.12799 10.5412C7.23831 9.66253 8.03482 9 8.98083 9H16.9796C17.9224 9 18.7186 9.65997 18.8319 10.5353L18.8962 11.0324C19.0292 12.0595 19.0351 13.731 18.9097 14.7582L18.8246 15.4531C18.7167 16.3348 17.9199 17 16.9708 17ZM8.98083 9.76188C8.44791 9.76188 7.99911 10.1355 7.93686 10.6302C7.77243 11.937 7.77243 14.0629 7.93686 15.3694C7.99902 15.8645 8.44791 16.238 8.98083 16.238H16.9709C17.5056 16.238 17.9545 15.8634 18.0152 15.3664L18.1004 14.6715C18.2201 13.6938 18.2143 12.1022 18.0877 11.1239L18.0234 10.6268C17.9595 10.1339 17.5107 9.76188 16.9796 9.76188H8.98083Z" fill="white"/>
<path d="M15 13L11.5 12V14L15 13Z" fill="white"/>
<path d="M11.4453 15C11.364 15 11.2829 14.9779 11.2113 14.9336C11.0801 14.8529 11 14.7096 11 14.5556V11.4445C11 11.2905 11.0801 11.1472 11.2113 11.0664C11.3429 10.9853 11.5068 10.9779 11.6449 11.0474L14.7543 12.6028C14.905 12.678 15 12.8315 15 13C15 13.1684 14.905 13.322 14.7543 13.3971L11.6449 14.9526C11.5818 14.9844 11.5135 15 11.4453 15ZM11.8905 12.1645V13.8355L13.5609 13L11.8905 12.1645Z" fill="white"/>
</svg>
